<svg width="85" height="85" viewBox="0 0 85 85" fill="none" xmlns="http://www.w3.org/2000/svg">
<circle cx="42.5" cy="42.5" r="42.5" fill="#F2D84C"/>
<path fill-rule="evenodd" clip-rule="evenodd" d="M42 21.8462C30.3171 21.8462 20.8462 31.3171 20.8462 43C20.8462 54.6829 30.3171 64.1538 42 64.1538C53.6829 64.1538 63.1538 54.6829 63.1538 43C63.1538 31.3171 53.6829 21.8462 42 21.8462ZM17 43C17 29.1929 28.1929 18 42 18C55.8071 18 67 29.1929 67 43C67 56.8071 55.8071 68 42 68C28.1929 68 17 56.8071 17 43Z" fill="black"/>
<path fill-rule="evenodd" clip-rule="evenodd" d="M42.0001 28.2564C43.0622 28.2564 43.9232 29.1174 43.9232 30.1795V43C43.9232 43.51 43.7206 43.9992 43.3599 44.3598L35.6676 52.0521C34.9166 52.8031 33.6989 52.8031 32.9479 52.0521C32.1969 51.3011 32.1969 50.0835 32.9479 49.3325L40.077 42.2034V30.1795C40.077 29.1174 40.938 28.2564 42.0001 28.2564Z" fill="black"/>
</svg>
