<svg width="169" height="26" viewBox="0 0 169 26" fill="none" xmlns="http://www.w3.org/2000/svg">
<path d="M6.848 25H0.08V0.879999H13.436C19.16 0.879999 22.76 4.156 22.76 9.88C22.76 15.604 19.16 18.916 13.436 18.916H6.848V25ZM12.68 6.964H6.848V12.832H12.68C15.056 12.832 16.028 12.364 16.028 9.88C16.028 7.432 15.056 6.964 12.68 6.964ZM30.9652 25H24.1972V6.856H30.5332V11.608H30.8932C31.3972 8.62 33.2692 6.496 36.8692 6.496C40.8652 6.496 42.4492 9.124 42.4492 12.76V16.36H35.6812V14.236C35.6812 12.724 35.1052 12.184 33.3412 12.184C31.5052 12.184 30.9652 12.724 30.9652 14.164V25ZM53.9287 25.36C47.6287 25.36 43.3447 21.796 43.3447 15.928C43.3447 10.024 47.6287 6.496 53.9287 6.496C60.2287 6.496 64.5127 10.024 64.5127 15.928C64.5127 21.796 60.2287 25.36 53.9287 25.36ZM53.9287 19.384C56.9887 19.384 57.8167 18.556 57.8167 15.928C57.8167 13.3 56.9887 12.436 53.9287 12.436C50.8687 12.436 50.0407 13.3 50.0407 15.928C50.0407 18.556 50.8687 19.384 53.9287 19.384ZM79.7106 25H74.9586C70.4226 25 67.7226 22.804 67.7226 18.088V12.4H65.0586V6.856H67.7226V3.724H74.4906V6.856H79.7106V12.4H74.4906V17.116C74.4906 18.556 74.9226 18.916 76.4706 18.916H79.7106V25ZM91.3701 25.36C85.0701 25.36 80.7861 21.796 80.7861 15.928C80.7861 10.024 85.0701 6.496 91.3701 6.496C97.6701 6.496 101.954 10.024 101.954 15.928C101.954 21.796 97.6701 25.36 91.3701 25.36ZM91.3701 19.384C94.4301 19.384 95.2581 18.556 95.2581 15.928C95.2581 13.3 94.4301 12.436 91.3701 12.436C88.3101 12.436 87.4821 13.3 87.4821 15.928C87.4821 18.556 88.3101 19.384 91.3701 19.384ZM110.348 25H103.58V0.879999H125.144V6.964H110.348V10.564H124.604V16.612H110.348V25ZM132.792 25.36C128.688 25.36 126.384 23.488 126.384 20.392C126.384 17.836 128.148 16 132.252 15.604L139.632 14.884V14.524C139.632 12.688 138.84 12.4 136.428 12.4C134.196 12.4 133.512 12.832 133.512 14.344V14.488H126.744V14.416C126.744 9.592 130.776 6.496 136.932 6.496C143.268 6.496 146.328 9.592 146.328 14.668V25H139.992V21.184H139.632C138.948 23.74 136.716 25.36 132.792 25.36ZM133.188 19.96C133.188 20.536 133.764 20.644 134.808 20.644C138.084 20.644 139.416 20.248 139.596 18.628L134.052 19.276C133.44 19.348 133.188 19.564 133.188 19.96ZM158.522 25.36C152.078 25.36 147.974 21.796 147.974 15.928C147.974 10.024 152.078 6.496 158.522 6.496C164.714 6.496 168.674 9.664 168.674 14.524V15.1H161.942V14.812C161.942 12.94 160.574 12.544 158.378 12.544C155.894 12.544 154.706 13.084 154.706 15.928C154.706 18.736 155.894 19.276 158.378 19.276C160.574 19.276 161.942 18.916 161.942 17.044V16.72H168.674V17.332C168.674 22.156 164.714 25.36 158.522 25.36Z" fill="black"/>
</svg>
