<svg width="85" height="85" viewBox="0 0 85 85" fill="none" xmlns="http://www.w3.org/2000/svg">
<circle cx="42.5" cy="42.5" r="42.5" fill="#2ED872"/>
<path fill-rule="evenodd" clip-rule="evenodd" d="M51.0521 36.512C51.8031 37.263 51.8031 38.4806 51.0521 39.2316L40.7957 49.488C40.0447 50.239 38.8271 50.239 38.0761 49.488L32.9479 44.3598C32.1969 43.6088 32.1969 42.3912 32.9479 41.6402C33.6989 40.8892 34.9165 40.8892 35.6675 41.6402L39.4359 45.4086L48.3325 36.512C49.0835 35.761 50.3011 35.761 51.0521 36.512Z" fill="black"/>
<path fill-rule="evenodd" clip-rule="evenodd" d="M42 21.8462C30.3171 21.8462 20.8462 31.3171 20.8462 43C20.8462 54.6829 30.3171 64.1538 42 64.1538C53.6829 64.1538 63.1538 54.6829 63.1538 43C63.1538 31.3171 53.6829 21.8462 42 21.8462ZM17 43C17 29.1929 28.1929 18 42 18C55.8071 18 67 29.1929 67 43C67 56.8071 55.8071 68 42 68C28.1929 68 17 56.8071 17 43Z" fill="black"/>
</svg>
