<svg width="85" height="85" viewBox="0 0 85 85" fill="none" xmlns="http://www.w3.org/2000/svg">
<circle cx="42.5" cy="42.5" r="42.5" fill="#E1E1E1"/>
<path fill-rule="evenodd" clip-rule="evenodd" d="M42.0005 21.8452C30.3175 21.8452 20.8466 31.3161 20.8466 42.999C20.8466 54.682 30.3175 64.1529 42.0005 64.1529C53.6834 64.1529 63.1543 54.682 63.1543 42.999C63.1543 31.3161 53.6834 21.8452 42.0005 21.8452ZM17.0005 42.999C17.0005 29.1919 28.1934 17.999 42.0005 17.999C55.8076 17.999 67.0005 29.1919 67.0005 42.999C67.0005 56.8061 55.8076 67.999 42.0005 67.999C28.1934 67.999 17.0005 56.8061 17.0005 42.999Z" fill="black"/>
<path fill-rule="evenodd" clip-rule="evenodd" d="M42.0005 33.3836C40.2303 33.3836 38.7954 34.8186 38.7954 36.5888C38.7954 37.6509 37.9344 38.5118 36.8723 38.5118C35.8102 38.5118 34.9492 37.6509 34.9492 36.5888C34.9492 32.6945 38.1062 29.5375 42.0005 29.5375C45.8948 29.5375 49.0518 32.6945 49.0518 36.5888C49.0518 37.9896 48.6413 39.3005 47.9334 40.4006C47.49 41.0897 46.9716 41.7476 46.4936 42.3417C46.4061 42.4504 46.3202 42.5567 46.2357 42.6612C45.8391 43.1521 45.4751 43.6027 45.1386 44.0651C44.3089 45.2054 43.9236 46.0624 43.9236 46.8452C43.9236 47.9073 43.0626 48.7683 42.0005 48.7683C40.9384 48.7683 40.0774 47.9073 40.0774 46.8452C40.0774 44.7958 41.0836 43.101 42.0286 41.8022C42.4279 41.2534 42.8655 40.7122 43.2633 40.22C43.343 40.1214 43.4211 40.0248 43.497 39.9305C43.9719 39.3404 44.3761 38.8212 44.699 38.3194C45.0195 37.8213 45.2056 37.2297 45.2056 36.5888C45.2056 34.8186 43.7706 33.3836 42.0005 33.3836Z" fill="black"/>
<path d="M44.5646 54.5375C44.5646 55.9536 43.4166 57.1016 42.0005 57.1016C40.5844 57.1016 39.4364 55.9536 39.4364 54.5375C39.4364 53.1214 40.5844 51.9734 42.0005 51.9734C43.4166 51.9734 44.5646 53.1214 44.5646 54.5375Z" fill="black"/>
</svg>
