<svg width="652" height="310" viewBox="0 0 652 310" fill="none" xmlns="http://www.w3.org/2000/svg">
<g clip-path="url(#clip0_275_558)">
<path d="M642.86 289.615C642.77 289.887 642.68 290.159 642.59 290.453C641.802 292.809 640.924 295.187 639.956 297.61C639.82 297.95 639.685 298.29 639.55 298.63C638.38 301.529 637.096 304.451 635.678 307.44C635.656 307.485 635.656 307.508 635.633 307.553L34.1298 308.369C34.2649 305.945 -20.802 227.715 36.8314 151.568C94.4647 75.4215 161.846 116.462 175.669 62.8738C178.663 51.3 183.459 41.5382 189.627 33.4298C189.943 32.9995 190.28 32.5691 190.618 32.1388C191.473 31.0516 192.374 29.9871 193.297 28.9679C193.545 28.6735 193.815 28.4017 194.062 28.1072C196.381 25.5705 198.88 23.215 201.469 21.0633C201.987 20.633 202.527 20.2027 203.068 19.7723C235.081 -5.41363 285.398 -4.32646 321.351 10.6447C369.101 30.5534 456.474 -4.05467 531.15 21.2219C532.388 21.6296 533.626 22.0825 534.842 22.5355C537.431 23.4868 539.998 24.506 542.542 25.6158C548.102 28.0166 552.943 30.7572 557.175 33.7695C557.783 34.1999 558.368 34.6302 558.954 35.0605C610.689 74.3343 564.694 156.642 591.417 169.37C608.19 177.366 632.931 195.304 643.625 224.408C643.76 224.771 643.895 225.156 644.03 225.518C644.165 225.926 644.323 226.356 644.458 226.764C644.593 227.149 644.706 227.511 644.818 227.896C650.244 244.86 650.897 265.335 642.86 289.615Z" fill="#EBF3FA"/>
<g opacity="0.4">
<path d="M296.348 94.6279H342.86V56.0336L296.348 56.0336V94.6279Z" fill="#C3DAFC"/>
<path d="M319.613 94.6279H366.125V56.0336L319.613 56.0336V94.6279Z" fill="#D4E4F8"/>
<path d="M296.361 84.8432H303.746L303.093 82.7595L303.746 81.2646H296.361V84.8432Z" fill="#9DC3F3"/>
<path d="M319.595 67.9926H326.979L326.326 65.9089L326.979 64.4141H319.595V67.9926Z" fill="#E3F0FF"/>
<path d="M319.595 64.4141H312.233L312.886 66.4978L312.233 67.9926H319.595V64.4141Z" fill="#9DC3F3"/>
<path d="M366.129 85.2744H358.745L359.398 87.3581L358.745 88.853H366.129V85.2744Z" fill="#E3F0FF"/>
<path d="M363.09 58.6611H349.695V63.8931H363.09V58.6611Z" fill="white"/>
<path d="M214.192 94.6279H260.704V56.0336L214.192 56.0336V94.6279Z" fill="#C3DAFC"/>
<path d="M237.455 94.6279H283.967V56.0336L237.455 56.0336V94.6279Z" fill="#D4E4F8"/>
<path d="M214.211 84.8432H221.596L220.943 82.7595L221.596 81.2646H214.211V84.8432Z" fill="#9DC3F3"/>
<path d="M237.445 67.9926H244.829L244.176 65.9089L244.829 64.4141H237.445V67.9926Z" fill="#E3F0FF"/>
<path d="M237.445 64.4141H230.083L230.713 66.4978L230.083 67.9926H237.445V64.4141Z" fill="#9DC3F3"/>
<path d="M283.957 85.2744H276.595L277.248 87.3581L276.595 88.853H283.957V85.2744Z" fill="#E3F0FF"/>
<path d="M280.917 58.6611H267.522V63.8931H280.917V58.6611Z" fill="white"/>
<path d="M201.987 94.6279H184.089V309.343H201.987V94.6279Z" fill="#C3DAFC"/>
<path d="M395.149 94.6279H380.268V309.343H395.149V94.6279Z" fill="#C3DAFC"/>
<path d="M395.127 94.6279H201.987V100.222H395.127V94.6279Z" fill="#C3DAFC"/>
<path d="M395.127 196.391H201.987V201.985H395.127V196.391Z" fill="#C3DAFC"/>
<path d="M395.127 281.756H201.987V287.35H395.127V281.756Z" fill="#C3DAFC"/>
<path d="M299.573 196.4H347.661V156.492H299.573V196.4Z" fill="#A9C8ED"/>
<path d="M323.624 196.4H371.712V156.492H323.624V196.4Z" fill="#D4E4F8"/>
<path d="M299.582 186.29H307.213L306.538 184.115L307.213 182.575H299.582V186.29Z" fill="#9DC3F3"/>
<path d="M323.603 168.849H331.235L330.56 166.697L331.235 165.157H323.603V168.849Z" fill="#E3F0FF"/>
<path d="M323.603 165.157H315.994L316.669 167.309L315.994 168.849H323.603V165.157Z" fill="#9DC3F3"/>
<path d="M371.713 186.72H364.081L364.756 188.871L364.081 190.412H371.713V186.72Z" fill="#E3F0FF"/>
<path d="M368.561 159.201H354.716V164.614H368.561V159.201Z" fill="white"/>
<path d="M237.837 196.4H285.925V156.492H237.837V196.4Z" fill="#C3DAFC"/>
<path d="M261.888 196.4H309.976V156.492H261.888V196.4Z" fill="#D4E4F8"/>
<path d="M237.873 186.29H245.482L244.807 184.115L245.482 182.575H237.873V186.29Z" fill="#9DC3F3"/>
<path d="M261.894 168.849H269.503L268.828 166.697L269.503 165.157H261.894V168.849Z" fill="#E3F0FF"/>
<path d="M261.894 165.157H254.262L254.938 167.309L254.262 168.849H261.894V165.157Z" fill="#9DC3F3"/>
<path d="M309.982 186.72H302.373L303.025 188.871L302.373 190.412H309.982V186.72Z" fill="#E3F0FF"/>
<path d="M309.982 164.637H302.373L303.025 166.788L302.373 168.329H309.982V164.637Z" fill="#E3F0FF"/>
<path d="M289.292 183.3H266.734V192.133H289.292V183.3Z" fill="white"/>
<path d="M299.575 281.618H341.134V247.123H299.575V281.618Z" fill="#C3DAFC"/>
<path d="M320.365 281.618H361.924V247.123H320.365V281.618Z" fill="#D4E4F8"/>
<path d="M299.581 272.878H306.177L305.592 271.021L306.177 269.685H299.581V272.878Z" fill="#9DC3F3"/>
<path d="M320.338 257.816H326.934L326.349 255.958L326.934 254.622H320.338V257.816Z" fill="#E3F0FF"/>
<path d="M320.338 254.622H313.764L314.35 256.479L313.764 257.816H320.338V254.622Z" fill="#9DC3F3"/>
<path d="M361.92 273.24H355.323L355.909 275.12L355.323 276.456H361.92V273.24Z" fill="#E3F0FF"/>
<path d="M359.196 249.481H347.241V254.17H359.196V249.481Z" fill="white"/>
<path d="M220.627 281.617H268.714V241.709H220.627V281.617Z" fill="#C3DAFC"/>
<path d="M244.678 281.617H292.766V241.709H244.678V281.617Z" fill="#D4E4F8"/>
<path d="M220.65 271.496H228.26L227.584 269.344L228.26 267.804H220.65V271.496Z" fill="#2A4E96"/>
<path d="M244.649 254.079H252.281L251.606 251.927L252.281 250.364H244.649V254.079Z" fill="#618DC1"/>
<path d="M244.649 250.364H237.04L237.715 252.539L237.04 254.079H244.649V250.364Z" fill="#2A4E96"/>
<path d="M292.76 271.926H285.128L285.803 274.1L285.128 275.64H292.76V271.926Z" fill="#618DC1"/>
<path d="M289.608 244.43H275.762V249.843H289.608V244.43Z" fill="white"/>
<path d="M234.145 156.325H270.909V125.817H234.145V156.325Z" fill="#C3DAFC"/>
<path d="M252.543 156.325H289.307V125.817H252.543V156.325Z" fill="#D4E4F8"/>
<path d="M234.181 148.578H239.989L239.494 146.947L239.989 145.747H234.181V148.578Z" fill="#9DC3F3"/>
<path d="M252.529 135.26H258.36L257.842 133.606L258.36 132.429H252.529V135.26Z" fill="#E3F0FF"/>
<path d="M252.529 132.429H246.698L247.216 134.082L246.698 135.26H252.529V132.429Z" fill="#9DC3F3"/>
<path d="M289.293 148.918H283.484L283.98 150.571L283.484 151.749H289.293V148.918Z" fill="#E3F0FF"/>
<path d="M286.906 127.877H276.325V132.022H286.906V127.877Z" fill="white"/>
<path d="M299.84 156.325H336.604V125.817H299.84V156.325Z" fill="#C3DAFC"/>
<path d="M318.238 156.325H355.001V125.817H318.238V156.325Z" fill="#D4E4F8"/>
<path d="M299.874 148.578H305.682L305.187 146.947L305.682 145.747H299.874V148.578Z" fill="#9DC3F3"/>
<path d="M318.222 135.26H324.053L323.535 133.606L324.053 132.429H318.222V135.26Z" fill="#E3F0FF"/>
<path d="M318.222 132.429H312.391L312.909 134.082L312.391 135.26H318.222V132.429Z" fill="#9DC3F3"/>
<path d="M354.986 148.918H349.178L349.673 150.571L349.178 151.749H354.986V148.918Z" fill="#E3F0FF"/>
<path d="M352.6 127.877H342.019V132.022H352.6V127.877Z" fill="white"/>
</g>
<path d="M594.322 249.707L593.399 249.435C595.807 241.168 591.44 232.561 583.628 230.251L563.952 224.43C559.899 223.23 557.625 218.768 558.886 214.487C562.938 200.649 555.577 186.221 542.497 182.348L542.789 181.374C556.387 185.406 564.019 200.377 559.809 214.759C558.706 218.519 560.71 222.414 564.244 223.456L583.921 229.277C592.228 231.746 596.888 240.919 594.322 249.707Z" fill="#2B478B"/>
<path d="M592.341 256.502L591.418 256.23C593.827 247.963 589.459 239.356 581.647 237.046L561.971 231.225C557.918 230.025 555.644 225.563 556.905 221.282C560.957 207.443 553.596 193.016 540.516 189.143L540.808 188.169C554.406 192.201 562.038 207.172 557.828 221.554C556.725 225.314 558.729 229.209 562.263 230.251L581.94 236.072C590.224 238.541 594.907 247.714 592.341 256.502Z" fill="#2B478B"/>
<path d="M490.154 156.166H448.73V190.525H490.154V156.166Z" fill="#ED823A"/>
<path d="M469.442 156.166H428.018V190.525H469.442V156.166Z" fill="#FF9E55"/>
<path d="M490.109 181.805H483.558L484.143 179.947L483.558 178.634H490.109V181.805Z" fill="#DD732C"/>
<path d="M469.442 166.811H462.868L463.454 164.953L462.868 163.617H469.442V166.811Z" fill="#FFB27D"/>
<path d="M469.442 163.617H475.993L475.408 165.474L475.993 166.811H469.442V163.617Z" fill="#DD732C"/>
<path d="M428.018 182.19H434.569L434.007 184.048L434.569 185.361H428.018V182.19Z" fill="#FFB27D"/>
<path d="M430.749 163.164H442.658V158.498H430.749V163.164Z" fill="white"/>
<path d="M491.64 62.7379C485.696 62.7379 479.483 61.7867 476.016 59.7935C470.523 56.6 463.544 57.9589 463.476 57.9589L463.296 57.1209C463.589 57.053 470.658 55.694 476.444 59.0461C482.139 62.3529 496.3 62.6473 502.716 60.4504C509.042 58.276 517.417 55.9658 520.907 55.9658V56.8265C517.507 56.8265 509.245 59.1367 502.986 61.2657C500.15 62.2397 495.962 62.7379 491.64 62.7379Z" fill="#2B478B"/>
<path d="M457.51 124.502H454.786V142.327H457.51V124.502Z" fill="#2B478B"/>
<path d="M462.868 124.502H460.144V142.327H462.868V124.502Z" fill="#2B478B"/>
<path d="M491.64 60.8356C485.696 60.8356 479.483 59.8843 476.016 57.8912C470.523 54.6977 463.544 56.0566 463.476 56.0566L463.296 55.2186C463.589 55.1506 470.658 53.7917 476.444 57.1438C482.139 60.4506 496.3 60.745 502.716 58.548C509.042 56.3737 517.417 54.0635 520.907 54.0635V54.9241C517.507 54.9241 509.245 57.2344 502.986 59.3634C500.15 60.3147 495.962 60.8356 491.64 60.8356Z" fill="#2B478B"/>
<path d="M548.823 165.021H547.697V164.161H548.823C554.046 164.161 558.301 159.88 558.301 154.625V55.9653C558.301 50.7107 554.046 46.43 548.823 46.43H540.471V45.5693H548.823C554.519 45.5693 559.157 50.2351 559.157 55.9653V154.625C559.157 160.356 554.519 165.021 548.823 165.021Z" fill="#2B478B"/>
<path d="M547.697 156.664V155.803C551.322 155.803 554.294 152.836 554.294 149.167V57.46C554.294 53.9268 551.435 51.0277 547.9 51.0277H541.281V50.167H547.9C551.907 50.167 555.149 53.4285 555.149 57.46V149.167C555.149 153.312 551.817 156.664 547.697 156.664Z" fill="#2B478B"/>
<path d="M470.185 128.465H446.726C443.394 128.465 440.67 125.748 440.67 122.373V69.6454C440.67 66.2933 443.372 63.5527 446.726 63.5527H470.185C473.517 63.5527 476.241 66.2706 476.241 69.6454V122.395C476.218 125.748 473.517 128.465 470.185 128.465Z" fill="#AEC3FF"/>
<path d="M450.419 75.8973C452.122 75.8973 453.503 74.5081 453.503 72.7943C453.503 71.0806 452.122 69.6914 450.419 69.6914C448.715 69.6914 447.334 71.0806 447.334 72.7943C447.334 74.5081 448.715 75.8973 450.419 75.8973Z" fill="#DDE7FE"/>
<path d="M447.312 117.164C447.312 115.443 448.707 114.062 450.396 114.062C452.107 114.062 453.48 115.466 453.48 117.164C453.48 118.886 452.084 120.267 450.396 120.267C448.707 120.29 447.312 118.886 447.312 117.164Z" fill="#DDE7FE"/>
<path d="M463.386 72.7943C463.386 71.073 464.782 69.6914 466.47 69.6914C468.158 69.6914 469.554 71.0957 469.554 72.7943C469.554 74.5157 468.158 75.8973 466.47 75.8973C464.782 75.8973 463.386 74.5157 463.386 72.7943Z" fill="#DDE7FE"/>
<path d="M463.386 117.164C463.386 115.443 464.782 114.062 466.47 114.062C468.158 114.062 469.554 115.466 469.554 117.164C469.554 118.886 468.158 120.267 466.47 120.267C464.782 120.267 463.386 118.886 463.386 117.164Z" fill="#DDE7FE"/>
<path d="M471.648 145.384C471.648 146.018 471.513 146.653 471.243 147.241H446.952C446.681 146.653 446.546 146.018 446.546 145.384C446.546 141.33 452.175 138.046 459.109 138.046C466.043 138.046 471.648 141.33 471.648 145.384Z" fill="#FF9E55"/>
<path d="M492.698 153.743V186.969C492.698 189.642 491.392 192.133 489.208 193.651L479.145 200.649C478.425 201.148 477.434 200.966 476.939 200.242C476.444 199.517 476.624 198.52 477.344 198.022L487.407 191.023C488.736 190.117 489.524 188.6 489.524 186.992V153.743C489.524 150.141 486.619 147.242 483.062 147.242H435.155C431.575 147.242 428.693 150.164 428.693 153.743V186.788C428.693 188.487 429.549 190.049 430.99 190.955L442.246 198.045C442.989 198.52 443.214 199.494 442.742 200.242C442.269 200.989 441.301 201.215 440.558 200.74L429.301 193.673C426.937 192.178 425.519 189.619 425.519 186.788V153.743C425.519 148.375 429.842 144.049 435.155 144.049H483.062C488.375 144.049 492.698 148.397 492.698 153.743Z" fill="#2B478B"/>
<path d="M523.519 43.5762H457.488V45.5693H523.519V43.5762Z" fill="#2B478B"/>
<path d="M523.519 49.1709H457.488V51.164H523.519V49.1709Z" fill="#2B478B"/>
<path d="M467.01 63.5531H447.334V49.6464C447.334 44.0068 451.882 39.4316 457.487 39.4316C463.093 39.4316 467.641 44.0068 467.641 49.6464V62.8962C467.641 63.2586 467.371 63.5531 467.01 63.5531Z" fill="#FF9E55"/>
<path d="M536.891 39.4316H526.85C522.123 39.4316 518.295 43.282 518.295 48.0383V228.213C518.295 232.969 522.123 236.82 526.85 236.82H536.891C541.619 236.82 545.446 232.969 545.446 228.213V48.0383C545.446 43.282 541.619 39.4316 536.891 39.4316Z" fill="#AEC3FF"/>
<path d="M531.871 50.6201C532.741 50.6201 533.447 49.9103 533.447 49.0347C533.447 48.159 532.741 47.4492 531.871 47.4492C531 47.4492 530.295 48.159 530.295 49.0347C530.295 49.9103 531 50.6201 531.871 50.6201Z" fill="#2B478B"/>
<path d="M543.532 198.905H519.263C516.967 198.905 515.076 197.025 515.076 194.715V71.4354C515.076 69.1252 516.944 67.2227 519.263 67.2227H543.532C545.829 67.2227 547.697 69.1025 547.697 71.4354V194.693C547.697 197.003 545.829 198.905 543.532 198.905Z" fill="#98B5F4"/>
<path d="M549.588 246.786H519.106C516.877 246.786 515.076 244.974 515.076 242.731V228.711C515.076 226.469 516.877 224.657 519.106 224.657H545.536C547.765 224.657 549.566 226.469 549.566 228.711V246.786H549.588Z" fill="#98B5F4"/>
<path d="M463.483 49.332C463.558 45.9931 460.929 43.2251 457.611 43.1494C454.292 43.0738 451.54 45.7192 451.464 49.058C451.389 52.3969 454.018 55.1648 457.337 55.2405C460.656 55.3161 463.407 52.6708 463.483 49.332Z" fill="#FF9E55"/>
<path d="M457.487 55.4219C454.065 55.4219 451.296 52.6361 451.296 49.1934C451.296 45.7507 454.065 42.9648 457.487 42.9648C460.909 42.9648 463.679 45.7507 463.679 49.1934C463.679 52.6134 460.909 55.4219 457.487 55.4219ZM457.487 43.3272C454.268 43.3272 451.657 45.9545 451.657 49.1934C451.657 52.4322 454.268 55.0595 457.487 55.0595C460.707 55.0595 463.318 52.4322 463.318 49.1934C463.296 45.9545 460.684 43.3272 457.487 43.3272Z" fill="#2B478B"/>
<path d="M461.067 50.0473C461.533 48.063 460.311 46.0746 458.339 45.606C456.367 45.1375 454.39 46.3662 453.924 48.3505C453.459 50.3348 454.68 52.3232 456.652 52.7917C458.625 53.2603 460.601 52.0315 461.067 50.0473Z" fill="#ED823A"/>
<path d="M600.102 245.727L623.611 234.979L614.8 215.473L591.291 226.221L600.102 245.727Z" fill="#C3DAFC"/>
<path d="M611.855 240.341L635.363 229.594L626.553 210.087L603.044 220.835L611.855 240.341Z" fill="#D4E4F8"/>
<path d="M605.78 226.922L609.495 225.2L608.684 224.294V223.411L604.947 225.11L605.78 226.922Z" fill="#618DC1"/>
<path d="M604.948 225.11L601.233 226.809L602.043 227.715V228.621L605.781 226.922L604.948 225.11Z" fill="#2A4E96"/>
<path d="M633.224 224.884L629.509 226.605L630.297 227.511L630.32 228.417L634.034 226.696L633.224 224.884Z" fill="#618DC1"/>
<path d="M625.605 212.187L618.841 215.279L620.033 217.919L626.797 214.827L625.605 212.187Z" fill="white"/>
<path d="M642.86 289.615C642.77 289.887 642.68 290.158 642.59 290.453C641.802 292.808 640.924 295.187 639.956 297.61C639.82 297.95 639.685 298.29 639.55 298.629C638.38 301.528 637.096 304.45 635.678 307.44H604.07L602.269 290.43L602.179 289.592L602.111 288.935L597.608 246.74L597.563 246.423L599.95 245.358L611.747 240.058L623.543 234.758L635.34 229.459L644.098 225.518C644.233 225.925 644.391 226.356 644.526 226.763C644.661 227.148 644.773 227.511 644.886 227.896C650.244 244.86 650.897 265.335 642.86 289.615Z" fill="#2B478B"/>
<path d="M642.86 289.615C642.77 289.887 642.68 290.159 642.589 290.453H605.398L605.308 289.615L605.24 288.959L601.188 247.601L603.057 246.763L644.841 227.919C650.244 244.861 650.897 265.335 642.86 289.615Z" fill="#D2E0FF"/>
<path d="M605.421 290.453H287.244C275.267 290.453 265.542 280.668 265.542 268.619C265.542 256.57 275.267 246.785 287.244 246.785H605.421C617.398 246.785 627.123 256.57 627.123 268.619C627.123 280.668 617.398 290.453 605.421 290.453Z" fill="#AEC3FF"/>
<path d="M627.123 268.619C627.123 274.644 624.692 280.102 620.775 284.066C616.857 288.007 611.432 290.453 605.421 290.453H551.479C550.331 290.453 549.386 289.502 549.386 288.346V248.892C549.386 247.736 550.331 246.785 551.479 246.785H605.421C617.398 246.785 627.123 256.547 627.123 268.619Z" fill="#C5D7FF"/>
<path d="M642.86 289.615C642.77 289.887 642.68 290.159 642.59 290.453C641.802 292.809 640.924 295.187 639.956 297.611C639.82 297.95 639.685 298.29 639.55 298.63C638.38 301.529 637.096 304.451 635.678 307.44L601.233 307.463L285.06 307.599V289.593H642.86V289.615Z" fill="#C5D7FF"/>
<path d="M380.47 266.264L378.016 265.131C377.814 265.041 377.679 264.837 377.679 264.61C377.679 264.316 377.656 264.022 377.611 263.75C377.544 263.206 377.454 262.685 377.319 262.164C377.251 261.938 377.341 261.666 377.544 261.53L379.795 259.809C380.043 259.628 380.088 259.288 379.93 259.039L378.557 256.842C378.399 256.593 378.084 256.502 377.814 256.638L375.495 257.793C375.27 257.906 375 257.861 374.82 257.68C374.054 256.887 373.176 256.208 372.186 255.687C371.938 255.551 371.825 255.279 371.893 255.03L372.276 253.49C372.343 253.195 372.186 252.901 371.893 252.788L369.484 251.904C369.439 251.882 369.394 251.882 369.326 251.859C369.079 251.836 368.854 251.972 368.741 252.199L367.886 254.033L367.683 254.486C367.21 254.464 366.715 254.486 366.22 254.532C365.567 254.599 364.914 254.735 364.306 254.917C364.081 254.984 363.811 254.917 363.676 254.713L362.302 252.901C362.122 252.652 361.762 252.584 361.514 252.765L359.848 253.829L359.376 254.124C359.106 254.282 359.016 254.622 359.151 254.894L360.096 256.864C360.209 257.091 360.164 257.363 359.984 257.544C359.466 258.065 358.993 258.654 358.61 259.288C358.565 259.333 358.543 259.401 358.498 259.446C358.498 259.469 358.475 259.492 358.453 259.492C358.318 259.673 358.07 259.763 357.845 259.718L355.346 259.107C355.323 259.107 355.278 259.107 355.256 259.084C354.986 259.061 354.738 259.22 354.648 259.469L353.77 261.893C353.657 262.187 353.792 262.504 354.085 262.64L356.629 263.84C356.854 263.931 356.967 264.157 356.967 264.407C356.944 264.928 356.967 265.471 357.012 266.015C357.034 266.309 357.079 266.581 357.147 266.875C357.192 267.102 357.102 267.328 356.922 267.464L354.761 269.118C354.513 269.299 354.468 269.639 354.625 269.888L355.999 272.062C356.156 272.334 356.494 272.424 356.787 272.288L358.633 271.383C358.88 271.269 359.173 271.315 359.353 271.541C360.051 272.379 360.839 273.104 361.762 273.67C361.987 273.806 362.077 274.055 362.032 274.327L361.492 276.592C361.424 276.886 361.582 277.203 361.875 277.317L364.261 278.2C364.554 278.313 364.869 278.177 364.981 277.883L365.026 277.77L366.017 275.641C366.13 275.414 366.355 275.278 366.602 275.301C367.21 275.346 367.818 275.324 368.426 275.256C368.764 275.21 369.079 275.165 369.394 275.097C369.619 275.052 369.844 275.142 369.979 275.323L371.375 277.181C371.555 277.43 371.915 277.498 372.186 277.339L374.324 275.98C374.392 275.935 374.437 275.89 374.482 275.844C374.617 275.663 374.64 275.414 374.549 275.21L373.784 273.647C373.694 273.466 373.717 273.217 373.829 273.059C373.852 273.013 373.897 272.968 373.942 272.945C375 272.062 375.878 270.952 376.508 269.729C376.621 269.525 376.846 269.389 377.071 269.412C377.116 269.412 377.139 269.412 377.184 269.435L379.21 269.933C379.502 270.001 379.795 269.842 379.908 269.571L379.93 269.503L380.786 267.147C380.876 266.717 380.741 266.4 380.47 266.264ZM372.523 267.034C372.276 267.736 371.645 268.574 371.015 269.14C370.857 269.276 370.722 269.389 370.587 269.457C369.934 269.865 369.259 270.159 368.584 270.295C364.756 271.156 361.177 267.917 361.852 263.818C361.92 263.41 362.032 262.98 362.19 262.572C362.483 261.757 363.315 260.715 364.058 260.239C364.126 260.194 364.216 260.149 364.284 260.103C369.056 257.295 374.414 261.711 372.523 267.034Z" fill="#98B5F4"/>
<path d="M397.04 276.863L395.284 276.048C395.149 275.98 395.037 275.821 395.037 275.663C395.037 275.459 395.014 275.255 394.992 275.029C394.946 274.644 394.879 274.259 394.789 273.896C394.744 273.715 394.811 273.534 394.946 273.443L396.567 272.198C396.748 272.062 396.793 271.813 396.657 271.631L395.667 270.046C395.554 269.865 395.329 269.797 395.149 269.887L393.483 270.725C393.326 270.816 393.123 270.771 392.988 270.635C392.448 270.069 391.795 269.57 391.097 269.208C390.939 269.117 390.849 268.913 390.894 268.732L391.164 267.622C391.209 267.419 391.097 267.192 390.894 267.124L389.161 266.49C389.116 266.467 389.093 266.467 389.048 266.467C388.868 266.445 388.71 266.535 388.62 266.716L388.012 268.03L387.855 268.347C387.517 268.347 387.157 268.347 386.797 268.392C386.324 268.438 385.874 268.528 385.423 268.664C385.266 268.71 385.086 268.664 384.973 268.528L383.983 267.215C383.848 267.034 383.6 266.988 383.42 267.101L382.227 267.872L381.889 268.098C381.709 268.211 381.641 268.46 381.731 268.664L382.407 270.069C382.497 270.227 382.452 270.431 382.339 270.544C381.956 270.929 381.641 271.337 381.349 271.79C381.326 271.835 381.304 271.858 381.281 271.903C381.281 271.926 381.259 271.926 381.259 271.948C381.146 272.084 380.988 272.152 380.808 272.107L379.007 271.677C378.985 271.677 378.962 271.677 378.94 271.654C378.76 271.631 378.557 271.745 378.489 271.926L377.859 273.67C377.792 273.874 377.882 274.123 378.084 274.213L379.93 275.074C380.088 275.142 380.178 275.3 380.178 275.482C380.155 275.867 380.178 276.252 380.223 276.637C380.245 276.841 380.268 277.044 380.313 277.248C380.336 277.407 380.29 277.588 380.155 277.679L378.602 278.879C378.422 279.015 378.377 279.241 378.512 279.445L379.503 281.008C379.615 281.189 379.863 281.257 380.065 281.167L381.394 280.51C381.574 280.419 381.776 280.465 381.911 280.623C382.407 281.212 382.992 281.733 383.645 282.163C383.803 282.254 383.87 282.458 383.825 282.639L383.42 284.27C383.375 284.496 383.487 284.723 383.69 284.791L385.401 285.425C385.604 285.493 385.829 285.402 385.919 285.198L385.964 285.13L386.684 283.59C386.752 283.432 386.932 283.318 387.112 283.341C387.54 283.364 387.99 283.364 388.418 283.318C388.665 283.296 388.89 283.25 389.116 283.205C389.273 283.16 389.431 283.228 389.543 283.364L390.556 284.7C390.692 284.881 390.939 284.926 391.142 284.813L392.695 283.839C392.74 283.817 392.785 283.771 392.808 283.726C392.898 283.59 392.92 283.432 392.853 283.273L392.29 282.141C392.222 282.005 392.245 281.846 392.312 281.71C392.335 281.688 392.357 281.642 392.403 281.62C393.168 280.985 393.798 280.193 394.249 279.309C394.316 279.151 394.496 279.083 394.654 279.083C394.676 279.083 394.699 279.083 394.721 279.083L396.162 279.445C396.365 279.491 396.59 279.377 396.657 279.174L396.68 279.128L397.288 277.43C397.333 277.18 397.243 276.954 397.04 276.863ZM391.322 277.407C391.142 277.905 390.692 278.517 390.241 278.924C390.129 279.015 390.039 279.106 389.926 279.151C389.453 279.445 388.958 279.649 388.485 279.762C385.739 280.374 383.172 278.064 383.645 275.097C383.69 274.802 383.78 274.508 383.893 274.191C384.118 273.602 384.703 272.854 385.221 272.515C385.288 272.469 385.333 272.447 385.378 272.401C388.823 270.408 392.695 273.579 391.322 277.407Z" fill="#D2E0FF"/>
<path d="M474.372 266.264L471.918 265.131C471.716 265.041 471.581 264.837 471.581 264.61C471.581 264.316 471.558 264.022 471.513 263.75C471.446 263.206 471.356 262.685 471.221 262.164C471.153 261.938 471.243 261.666 471.423 261.53L473.674 259.809C473.922 259.628 473.99 259.288 473.81 259.039L472.436 256.842C472.279 256.593 471.963 256.502 471.693 256.638L469.352 257.793C469.127 257.906 468.857 257.861 468.677 257.68C467.911 256.887 467.033 256.208 466.043 255.687C465.817 255.551 465.682 255.279 465.75 255.03L466.133 253.49C466.2 253.195 466.043 252.901 465.75 252.788L463.341 251.904C463.296 251.882 463.251 251.882 463.183 251.859C462.936 251.836 462.711 251.972 462.598 252.199L461.743 254.033L461.54 254.486C461.067 254.464 460.572 254.486 460.077 254.532C459.424 254.599 458.771 254.735 458.163 254.917C457.938 254.984 457.668 254.917 457.533 254.713L456.159 252.901C455.979 252.652 455.619 252.584 455.371 252.765L453.705 253.829L453.233 254.124C452.962 254.282 452.872 254.622 453.008 254.894L453.953 256.864C454.066 257.091 454.021 257.363 453.841 257.544C453.323 258.065 452.85 258.654 452.467 259.288C452.422 259.333 452.4 259.401 452.355 259.446C452.355 259.469 452.332 259.492 452.31 259.492C452.175 259.673 451.927 259.763 451.702 259.718L449.203 259.107C449.18 259.107 449.135 259.107 449.113 259.084C448.843 259.061 448.595 259.22 448.505 259.469L447.627 261.893C447.514 262.187 447.649 262.504 447.942 262.64L450.486 263.84C450.711 263.931 450.824 264.157 450.824 264.407C450.801 264.928 450.824 265.471 450.869 266.015C450.891 266.309 450.936 266.581 451.004 266.875C451.049 267.102 450.959 267.328 450.779 267.464L448.617 269.118C448.37 269.299 448.325 269.639 448.482 269.888L449.856 272.062C450.013 272.334 450.351 272.424 450.644 272.288L452.49 271.383C452.737 271.269 453.03 271.315 453.21 271.541C453.886 272.379 454.696 273.104 455.619 273.67C455.844 273.806 455.934 274.055 455.889 274.327L455.349 276.592C455.281 276.886 455.439 277.203 455.732 277.317L458.118 278.2C458.411 278.313 458.726 278.177 458.838 277.883L458.883 277.77L459.874 275.641C459.987 275.414 460.212 275.278 460.459 275.301C461.067 275.346 461.675 275.324 462.283 275.256C462.621 275.21 462.936 275.165 463.251 275.097C463.476 275.052 463.701 275.142 463.836 275.323L465.232 277.181C465.412 277.43 465.772 277.498 466.043 277.339L468.181 275.98C468.249 275.935 468.294 275.89 468.339 275.844C468.474 275.663 468.497 275.414 468.406 275.21L467.641 273.647C467.551 273.466 467.573 273.217 467.686 273.059C467.709 273.013 467.754 272.968 467.799 272.945C468.857 272.062 469.735 270.952 470.365 269.729C470.478 269.525 470.703 269.389 470.928 269.412C470.95 269.412 470.995 269.412 471.018 269.435L473.044 269.933C473.337 270.001 473.629 269.842 473.742 269.571L473.765 269.503L474.62 267.147C474.778 266.717 474.643 266.4 474.372 266.264ZM466.425 267.034C466.178 267.736 465.547 268.574 464.917 269.14C464.759 269.276 464.624 269.389 464.489 269.457C463.814 269.865 463.161 270.159 462.486 270.295C458.658 271.156 455.101 267.917 455.754 263.818C455.822 263.41 455.934 262.98 456.092 262.572C456.384 261.757 457.217 260.715 457.96 260.239C458.05 260.194 458.118 260.149 458.186 260.103C462.936 257.295 468.316 261.711 466.425 267.034Z" fill="#98B5F4"/>
<path d="M490.942 276.863L489.186 276.048C489.051 275.98 488.938 275.821 488.938 275.663C488.938 275.459 488.916 275.255 488.893 275.029C488.848 274.644 488.781 274.259 488.691 273.896C488.646 273.715 488.713 273.534 488.848 273.443L490.469 272.198C490.649 272.062 490.694 271.813 490.559 271.631L489.569 270.046C489.456 269.865 489.231 269.797 489.051 269.887L487.362 270.725C487.205 270.816 487.002 270.771 486.867 270.635C486.327 270.069 485.674 269.57 484.976 269.208C484.796 269.117 484.728 268.913 484.773 268.732L485.044 267.622C485.089 267.419 484.976 267.192 484.773 267.124L483.04 266.49C482.995 266.467 482.972 266.467 482.927 266.467C482.747 266.445 482.59 266.535 482.5 266.716L481.892 268.03L481.734 268.347C481.397 268.347 481.036 268.347 480.676 268.392C480.203 268.438 479.753 268.528 479.303 268.664C479.145 268.71 478.965 268.664 478.853 268.528L477.862 267.215C477.727 267.034 477.479 266.988 477.299 267.101L476.106 267.872L475.768 268.098C475.588 268.211 475.521 268.46 475.611 268.664L476.309 270.069C476.399 270.227 476.354 270.431 476.241 270.544C475.858 270.929 475.543 271.337 475.25 271.79C475.228 271.835 475.205 271.858 475.183 271.903C475.183 271.926 475.16 271.926 475.16 271.948C475.048 272.084 474.89 272.152 474.71 272.107L472.909 271.677C472.887 271.677 472.864 271.677 472.842 271.654C472.661 271.631 472.459 271.745 472.391 271.926L471.761 273.67C471.693 273.874 471.783 274.123 471.986 274.213L473.832 275.074C473.99 275.142 474.08 275.3 474.08 275.482C474.057 275.867 474.08 276.252 474.125 276.637C474.147 276.841 474.17 277.044 474.215 277.248C474.237 277.407 474.17 277.588 474.057 277.679L472.504 278.879C472.324 279.015 472.279 279.241 472.414 279.445L473.404 281.008C473.517 281.189 473.765 281.257 473.967 281.167L475.295 280.51C475.476 280.419 475.678 280.465 475.813 280.623C476.309 281.212 476.894 281.733 477.547 282.163C477.704 282.254 477.772 282.458 477.727 282.639L477.322 284.27C477.277 284.496 477.389 284.723 477.592 284.791L479.303 285.425C479.505 285.493 479.731 285.402 479.821 285.198L479.866 285.13L480.564 283.59C480.631 283.432 480.811 283.318 480.991 283.341C481.419 283.364 481.869 283.364 482.32 283.318C482.567 283.296 482.792 283.25 483.017 283.205C483.175 283.16 483.333 283.228 483.445 283.364L484.458 284.7C484.593 284.881 484.841 284.926 485.044 284.813L486.575 283.839C486.62 283.817 486.665 283.771 486.687 283.726C486.777 283.59 486.8 283.432 486.732 283.273L486.192 282.141C486.124 282.005 486.147 281.846 486.214 281.71C486.237 281.688 486.259 281.642 486.304 281.62C487.07 280.985 487.7 280.193 488.15 279.309C488.218 279.151 488.376 279.083 488.556 279.083C488.578 279.083 488.601 279.083 488.623 279.083L490.087 279.445C490.289 279.491 490.514 279.377 490.582 279.174L490.604 279.128L491.212 277.43C491.235 277.18 491.145 276.954 490.942 276.863ZM485.224 277.407C485.044 277.905 484.593 278.517 484.143 278.924C484.031 279.015 483.918 279.106 483.828 279.151C483.355 279.445 482.86 279.649 482.387 279.762C479.64 280.374 477.074 278.064 477.547 275.097C477.592 274.802 477.682 274.508 477.794 274.191C478.02 273.602 478.605 272.854 479.123 272.515C479.168 272.469 479.235 272.447 479.28 272.401C482.725 270.408 486.597 273.579 485.224 277.407Z" fill="#D2E0FF"/>
<path d="M421.692 263.999L419.035 263.523C418.81 263.478 418.63 263.319 418.563 263.093C418.473 262.821 418.383 262.549 418.292 262.255C418.09 261.757 417.865 261.258 417.617 260.805C417.505 260.601 417.505 260.33 417.662 260.126L419.396 257.884C419.576 257.634 419.553 257.295 419.328 257.091L417.437 255.324C417.212 255.12 416.897 255.12 416.672 255.302L414.713 257.023C414.533 257.181 414.24 257.204 414.015 257.068C413.069 256.502 412.056 256.072 410.976 255.823C410.706 255.755 410.525 255.528 410.525 255.256L410.503 253.671C410.503 253.376 410.255 253.105 409.963 253.082L407.419 252.855C407.374 252.855 407.306 252.855 407.261 252.855C407.013 252.901 406.833 253.082 406.788 253.331L406.428 255.324L406.338 255.823C405.865 255.936 405.392 256.072 404.942 256.253C404.334 256.502 403.749 256.796 403.209 257.114C403.006 257.249 402.736 257.227 402.556 257.068L400.755 255.664C400.507 255.483 400.169 255.505 399.944 255.732L398.594 257.181L398.211 257.589C398.008 257.816 397.986 258.178 398.188 258.405L399.607 260.058C399.764 260.239 399.809 260.511 399.674 260.737C399.314 261.394 398.999 262.074 398.774 262.776C398.751 262.844 398.729 262.889 398.706 262.957C398.706 262.98 398.684 263.002 398.684 263.025C398.594 263.251 398.391 263.387 398.143 263.387L395.577 263.433C395.554 263.433 395.509 263.433 395.487 263.433C395.217 263.478 395.014 263.704 394.991 263.976L394.766 266.536C394.744 266.853 394.946 267.124 395.262 267.17L398.031 267.668C398.256 267.713 398.458 267.895 398.504 268.121C398.616 268.642 398.774 269.163 398.954 269.661C399.066 269.933 399.179 270.205 399.291 270.454C399.382 270.658 399.359 270.907 399.224 271.088L397.558 273.24C397.378 273.466 397.4 273.806 397.625 274.032L399.494 275.776C399.719 275.98 400.057 276.003 400.305 275.799L401.858 274.44C402.061 274.259 402.376 274.236 402.601 274.395C403.479 275.029 404.447 275.505 405.46 275.844C405.708 275.912 405.865 276.139 405.865 276.411L405.91 278.744C405.91 279.061 406.158 279.31 406.473 279.332L408.995 279.559C409.287 279.582 409.58 279.378 409.625 279.083L409.647 278.97L410.053 276.66C410.098 276.411 410.278 276.229 410.525 276.162C411.111 276.048 411.696 275.89 412.282 275.663C412.597 275.55 412.889 275.414 413.182 275.256C413.385 275.142 413.632 275.165 413.812 275.323L415.636 276.75C415.884 276.954 416.244 276.909 416.446 276.682L418.18 274.803C418.225 274.757 418.27 274.689 418.292 274.621C418.383 274.418 418.337 274.168 418.202 273.987L417.054 272.674C416.919 272.515 416.874 272.289 416.942 272.085C416.964 272.039 416.987 271.971 417.009 271.926C417.797 270.794 418.36 269.503 418.675 268.166C418.72 267.94 418.9 267.759 419.125 267.713C419.148 267.713 419.193 267.713 419.238 267.691L421.309 267.645C421.602 267.645 421.85 267.396 421.895 267.102V267.034L422.12 264.542C422.21 264.316 422.007 264.044 421.692 263.999ZM414.218 266.785C414.15 267.51 413.767 268.506 413.295 269.208C413.182 269.367 413.069 269.525 412.957 269.639C412.417 270.205 411.831 270.658 411.223 270.975C407.734 272.787 403.479 270.59 403.074 266.445C403.029 266.037 403.029 265.584 403.074 265.154C403.164 264.293 403.704 263.048 404.289 262.436C404.357 262.368 404.402 262.3 404.469 262.232C408.387 258.269 414.69 261.168 414.218 266.785Z" fill="#98B5F4"/>
<path d="M642.86 289.615C642.77 289.887 642.68 290.159 642.59 290.453C641.802 292.809 640.924 295.187 639.956 297.61C639.821 297.95 639.686 298.29 639.551 298.63C638.38 301.529 637.097 304.45 635.678 307.44L601.233 307.463V289.615H642.86Z" fill="#D2E0FF"/>
<path d="M605.421 291.427H287.244C274.727 291.427 264.573 281.19 264.573 268.619C264.573 262.527 266.937 256.796 271.215 252.493C275.492 248.19 281.188 245.812 287.244 245.812H605.421C617.915 245.812 628.091 256.049 628.091 268.619C628.091 274.712 625.727 280.442 621.45 284.746C617.172 289.049 611.477 291.427 605.421 291.427ZM287.244 247.759C281.706 247.759 276.505 249.934 272.588 253.875C268.671 257.816 266.509 263.048 266.509 268.619C266.509 280.125 275.807 289.479 287.244 289.479H605.421C610.959 289.479 616.159 287.305 620.077 283.364C623.994 279.423 626.155 274.191 626.155 268.619C626.155 257.113 616.857 247.759 605.421 247.759H287.244Z" fill="#2B478B"/>
<path d="M111.372 156.438H90.3C89.3319 156.438 88.5439 155.645 88.5439 154.671V134.219C88.5439 133.245 89.3319 132.452 90.3 132.452H111.372C112.34 132.452 113.128 133.245 113.128 134.219V154.671C113.128 155.645 112.34 156.438 111.372 156.438Z" fill="#C0D8FB"/>
<path d="M110.449 155.396H91.2005C90.3225 155.396 89.6021 154.671 89.6021 153.788V135.102C89.6021 134.219 90.3225 133.494 91.2005 133.494H110.449C111.327 133.494 112.048 134.219 112.048 135.102V153.788C112.07 154.671 111.327 155.396 110.449 155.396Z" fill="#DFEBFD"/>
<path d="M100.836 136.189C101.122 136.189 101.354 135.956 101.354 135.668C101.354 135.381 101.122 135.147 100.836 135.147C100.55 135.147 100.318 135.381 100.318 135.668C100.318 135.956 100.55 136.189 100.836 136.189Z" fill="#B7D3F3"/>
<path d="M104.438 136.393C104.573 136.144 104.888 136.053 105.136 136.189C105.384 136.325 105.474 136.642 105.339 136.891C105.204 137.14 104.888 137.231 104.641 137.095C104.393 136.937 104.303 136.642 104.438 136.393Z" fill="#B7D3F3"/>
<path d="M107.95 139.201C108.198 139.043 108.513 139.111 108.648 139.36C108.806 139.609 108.738 139.926 108.49 140.062C108.243 140.221 107.928 140.153 107.792 139.904C107.657 139.677 107.725 139.36 107.95 139.201Z" fill="#B7D3F3"/>
<path d="M109.706 143.551C109.999 143.551 110.224 143.777 110.224 144.072C110.224 144.344 109.999 144.593 109.706 144.593C109.436 144.593 109.188 144.366 109.188 144.072C109.188 143.777 109.414 143.551 109.706 143.551Z" fill="#B7D3F3"/>
<path d="M108.806 148.624C109.009 148.827 109.009 149.145 108.806 149.348C108.603 149.552 108.288 149.552 108.086 149.348C107.883 149.145 107.883 148.827 108.086 148.624C108.288 148.42 108.603 148.42 108.806 148.624Z" fill="#B7D3F3"/>
<path d="M105.609 151.84C105.811 152.044 105.811 152.361 105.609 152.565C105.406 152.769 105.091 152.769 104.888 152.565C104.686 152.361 104.686 152.044 104.888 151.84C105.091 151.637 105.406 151.637 105.609 151.84Z" fill="#B7D3F3"/>
<path d="M100.318 153.494C100.318 153.222 100.543 152.973 100.836 152.973C101.129 152.973 101.354 153.199 101.354 153.494C101.354 153.788 101.129 154.015 100.836 154.015C100.543 154.015 100.318 153.788 100.318 153.494Z" fill="#B7D3F3"/>
<path d="M97.2118 136.393C97.0767 136.144 96.7615 136.053 96.5139 136.189C96.2663 136.325 96.1762 136.642 96.3113 136.891C96.4464 137.14 96.7615 137.231 97.0092 137.095C97.2568 136.937 97.3469 136.642 97.2118 136.393Z" fill="#B7D3F3"/>
<path d="M93.6997 139.201C93.4745 139.043 93.1368 139.111 93.0018 139.36C92.8442 139.609 92.9117 139.926 93.1594 140.062C93.407 140.221 93.7222 140.153 93.8573 139.904C93.9923 139.677 93.9248 139.36 93.6997 139.201Z" fill="#B7D3F3"/>
<path d="M91.9436 144.592C92.2296 144.592 92.4614 144.358 92.4614 144.071C92.4614 143.783 92.2296 143.55 91.9436 143.55C91.6576 143.55 91.4258 143.783 91.4258 144.071C91.4258 144.358 91.6576 144.592 91.9436 144.592Z" fill="#B7D3F3"/>
<path d="M92.8443 148.624C92.6417 148.827 92.6417 149.145 92.8443 149.348C93.047 149.552 93.3621 149.552 93.5648 149.348C93.7674 149.145 93.7674 148.827 93.5648 148.624C93.3621 148.42 93.047 148.42 92.8443 148.624Z" fill="#B7D3F3"/>
<path d="M96.0411 151.839C95.8385 152.043 95.8385 152.36 96.0411 152.564C96.2437 152.768 96.5589 152.768 96.7615 152.564C96.9642 152.36 96.9642 152.043 96.7615 151.839C96.5589 151.636 96.2437 151.636 96.0411 151.839Z" fill="#B7D3F3"/>
<path d="M101.197 144.592C101.482 144.592 101.714 144.358 101.714 144.071C101.714 143.783 101.482 143.55 101.197 143.55C100.911 143.55 100.679 143.783 100.679 144.071C100.679 144.358 100.911 144.592 101.197 144.592Z" fill="#B7D3F3"/>
<path d="M101.264 137.661H101.129V144.071H101.264V137.661Z" fill="#B7D3F3"/>
<path d="M104.387 141.22L101.004 143.892L101.269 144.23L104.651 141.559L104.387 141.22Z" fill="#B7D3F3"/>
<path d="M316.634 211.462H348.085V185.37H316.634V211.462Z" fill="#D8702A"/>
<path d="M332.36 211.462H363.811V185.37H332.36V211.462Z" fill="#FF9E55"/>
<path d="M316.646 204.839H321.621L321.193 203.435L321.621 202.416H316.646V204.839Z" fill="#C15E1B"/>
<path d="M332.36 193.447H337.335L336.907 192.02L337.335 191.023H332.36V193.447Z" fill="#FFB27D"/>
<path d="M332.36 191.023H327.362L327.812 192.428L327.362 193.447H332.36V191.023Z" fill="#C15E1B"/>
<path d="M363.81 205.111H358.835L359.263 206.538L358.835 207.535H363.81V205.111Z" fill="#FFB27D"/>
<path d="M361.762 187.128H352.711V190.661H361.762V187.128Z" fill="white"/>
<path d="M348.974 210.344C349.74 209.845 351.473 208.758 351.541 209.007C351.586 209.188 351.496 209.506 351.271 209.823C352.306 209.483 353.342 209.279 355.773 209.845C356.269 209.959 356.696 210.253 356.944 210.683C357.169 211.091 357.259 211.567 356.606 211.952C355.323 212.676 355.706 212.223 353.927 213.311C352.149 214.375 350.01 214.579 348.772 213.741L347.083 213.379L346.971 210.547C347.016 210.547 347.984 210.479 348.974 210.344Z" fill="#FFC299"/>
<path d="M314.372 182.258C309.711 185.18 304.871 181.216 304.871 181.216C304.871 181.216 306.717 176.46 305.569 170.163C305.524 169.914 313.719 173.312 313.966 173.357C313.966 173.357 313.966 173.38 313.966 173.425C313.966 173.47 313.966 173.516 313.989 173.538C314.124 174.648 314.214 175.758 314.259 176.777C314.439 179.835 314.372 182.258 314.372 182.258Z" fill="#FFB27D"/>
<path d="M314.259 176.777C310.545 176.438 307.686 174.331 306.74 173.154C306.447 172.791 313.742 173.335 313.967 173.357C313.967 173.357 313.967 173.38 313.967 173.425C313.967 173.448 313.967 173.493 313.989 173.539C314.102 174.648 314.192 175.736 314.259 176.777Z" fill="#ED975D"/>
<path d="M315.475 172.836C315.475 172.836 307.438 176.415 305.322 171.341C303.183 166.268 300.706 163.324 305.749 160.832C310.792 158.341 312.593 159.836 313.719 161.353C314.845 162.871 317.524 171.772 315.475 172.836Z" fill="#FFB27D"/>
<path d="M305.884 172.723C305.794 172.814 304.083 173.72 299.378 167.514C298.635 166.54 297.847 164.275 298.703 161.987C299.581 159.7 303.701 157.231 307.258 155.849C308.924 155.193 310.522 155.328 311.738 155.646C313.246 156.031 314.124 157.616 313.696 159.111C313.021 161.489 311.355 162.939 309.239 162.871C307.82 162.825 307.911 165.724 307.933 166.427C307.956 167.129 307.911 167.718 306.132 167.423C304.601 167.174 305.457 169.212 305.974 170.118C306.222 170.571 306.357 171.07 306.335 171.591C306.335 171.976 306.222 172.406 305.884 172.723Z" fill="#2A4E96"/>
<path d="M293.592 307.577H288.414C287.334 307.577 286.118 306.49 285.825 304.474C285.533 302.481 283.304 301.371 282.809 299.74C282.336 298.109 284.79 295.799 284.79 295.799L285.195 295.256L285.623 294.689L289.72 295.663C289.72 295.663 289.81 296.637 289.878 297.906C289.923 298.812 289.945 299.853 289.9 300.759C289.788 302.934 290.508 305.289 292.444 305.72C294.403 306.173 293.592 307.577 293.592 307.577Z" fill="#2C3A64"/>
<path d="M329.613 307.576H315.903C315.768 307.554 315.678 307.531 315.61 307.486C314.687 307.033 314.98 303.499 315.092 302.412C315.115 302.208 315.137 302.095 315.137 302.095C315.137 302.095 319.955 298.222 320.63 301.189C320.653 301.28 320.676 301.37 320.698 301.461C321.531 304.247 325.268 305.492 327.429 305.855C329.073 306.127 329.501 307.101 329.613 307.576Z" fill="#2C3A64"/>
<path d="M326.844 228.033C326.844 228.033 326.101 237.228 325.246 248.281C324.075 263.298 322.679 281.734 322.522 285.222C322.274 291.292 321.306 300.986 321.306 300.986C321.306 300.986 319.01 303.296 314.44 302.322C314.44 302.322 310.365 288.484 309.194 273.83C309.171 273.58 309.149 273.354 309.149 273.105C308.068 258.179 306.38 226.787 306.38 226.787L326.844 228.033Z" fill="#FF9E55"/>
<path d="M324.818 226.764C322.882 226.877 302.485 226.107 302.485 224.952C302.463 220.966 301.63 214.511 300.594 206.674C300.414 205.225 300.256 203.775 300.144 202.326C299.851 198.588 299.851 195.01 300.121 191.771C300.639 185.746 302.192 181.873 304.781 179.608C304.781 179.608 307.235 179.812 309.464 180.152C312.008 180.537 312.954 180.378 314.71 179.88L317.817 182.575C319.685 184.319 321.171 186.154 321.779 188.668C321.801 188.668 324.976 226.741 324.818 226.764Z" fill="#2A4E96"/>
<path d="M303.498 199.2C303.498 199.2 305.637 206.04 312.818 209.347C319.978 212.654 315.7 203.051 315.7 203.051L303.498 199.2Z" fill="#1B407A"/>
<path d="M321.801 188.668L316.241 189.982L308.564 210.864C307.46 213.854 304.917 215.711 301.742 215.711V216.209L302.125 226.152L326.822 228.417C326.822 228.417 326.934 215.96 326.507 211.974C325.831 206.063 321.801 188.668 321.801 188.668Z" fill="#FF9E55"/>
<path d="M348.502 211.929C348.682 210.299 347.849 209.981 347.849 209.981C347.849 209.981 331.437 206.312 330.041 205.814C328.645 205.316 317.118 192.27 317.118 192.27C317.118 192.27 312.706 186.857 308.901 187.876C305.592 188.759 304.196 191.273 303.678 193.697C303.048 196.596 301.067 197.524 303.521 199.178C309.036 202.87 323.264 212.246 325.899 213.13C331.752 215.1 347.714 214.126 347.714 214.126C347.714 214.126 348.367 213.22 348.502 211.929Z" fill="#2A4E96"/>
<path d="M310.454 183.935C309.149 182.712 304.804 179.609 304.804 179.609C304.804 179.609 304.984 179.314 305.231 179.065C305.479 178.816 305.794 178.635 305.794 178.635C306.357 178.521 310.657 181.76 312.075 183.051C313.809 184.591 318.582 189.438 318.582 189.438L316.24 189.982C316.218 189.982 311.985 185.362 310.454 183.935Z" fill="#ED823A"/>
<path d="M315.813 160.877C315.813 160.877 312.616 162.689 311.423 162.984C311.062 163.074 305.839 164.388 305.839 164.388L298.342 167.151C298.342 167.151 295.799 161.648 298.928 157.344C298.995 157.231 299.085 157.118 299.175 157.027C300.031 155.963 301.269 154.966 303.025 154.173C311.895 150.187 315.723 160.56 315.813 160.877Z" fill="#FF9E55"/>
<path d="M311.513 162.825L310.094 163.278C308.676 161.965 303.52 157.457 298.905 157.48C298.928 157.435 298.95 157.39 298.973 157.367C299.04 157.254 299.085 157.208 299.175 157.05C299.198 157.05 299.198 157.05 299.22 157.05C305.164 157.39 310.319 161.648 311.513 162.825Z" fill="#E27830"/>
<path d="M305.862 164.411C305.862 164.411 305.074 165.725 305.007 166.857C304.939 167.99 300.031 169.553 299.581 169.054C299.131 168.556 298.365 167.174 298.365 167.174L305.862 164.411Z" fill="#FF9E55"/>
<path d="M305.862 164.411C305.862 164.411 315.137 162.916 318.964 159.904C319.257 159.677 319.122 159.202 318.739 159.179C318.086 159.134 316.961 159.156 315.16 159.405C315.182 159.428 312.368 162.78 305.862 164.411Z" fill="#E27830"/>
<path d="M324.12 227.42C324.12 227.42 324.593 233.151 321.959 243.909C320.023 251.814 309.216 273.806 309.216 273.806C309.194 273.557 309.171 273.33 309.171 273.081C308.091 258.155 306.402 226.764 306.402 226.764L324.12 227.42Z" fill="#ED823A"/>
<path d="M324.12 227.421C324.12 227.421 310.297 262.414 301.629 278.065C292.939 293.715 290.238 298.064 290.238 298.064C290.238 298.064 285.262 296.071 284.812 294.689C284.812 294.689 288.121 264.498 293.952 257.137C297.239 252.969 301.089 240.49 301.269 236.118C301.449 231.747 301.944 221.283 301.944 221.283L324.12 227.421Z" fill="#FF9E55"/>
<g opacity="0.5">
<path d="M531.15 21.2445C532.388 21.6522 533.626 22.1051 534.842 22.5581L526.918 22.5128H524.824L500.465 22.3996H498.371L474.012 22.2863H471.918L447.559 22.1731H445.465L421.106 22.0598H419.013L394.654 21.9239H392.56L368.201 21.8107H366.107L341.748 21.6975H339.654L315.295 21.5842H313.201L288.842 21.471H286.749L262.389 21.3577H260.296L235.937 21.2218H233.843L209.484 21.1086H207.39L201.492 21.0859C202.009 20.6556 202.55 20.2253 203.09 19.7949L207.48 19.8176L233.91 19.9308L260.363 20.0441L286.816 20.1573L313.269 20.2706L339.722 20.3838L366.175 20.497L392.627 20.6103L419.08 20.7235L445.533 20.8368L471.986 20.95L498.439 21.0633L524.891 21.1765L531.15 21.2445Z" fill="#C3DAFC"/>
<path d="M557.198 33.7694C557.806 34.1998 558.391 34.6301 558.976 35.0604L189.605 33.4297C189.92 32.9993 190.258 32.569 190.596 32.1387L198.227 32.1613H200.321L224.68 32.2746H226.774L251.133 32.3878H253.227L277.586 32.5011H279.68L304.039 32.6143H306.132L330.492 32.7276H332.585L356.944 32.8408H359.038L383.397 32.954H385.491L409.85 33.0673H411.944L436.303 33.1805H438.397L462.756 33.2938H464.849L489.208 33.407H491.302L515.661 33.5203H517.755L542.114 33.6335H544.208L557.198 33.7694Z" fill="#C3DAFC"/>
<path d="M200.343 32.2067L199.736 33.158L198.25 32.1841L193.297 28.9906C193.545 28.6961 193.815 28.4243 194.062 28.1299L200.343 32.2067Z" fill="#C3DAFC"/>
<path d="M207.45 19.8246L206.842 20.7773L226.199 33.2886L226.807 32.3358L207.45 19.8246Z" fill="#C3DAFC"/>
<path d="M233.901 19.9418L233.292 20.8945L252.649 33.4058L253.258 32.453L233.901 19.9418Z" fill="#C3DAFC"/>
<path d="M260.351 20.06L259.743 21.0127L279.1 33.5239L279.708 32.5712L260.351 20.06Z" fill="#C3DAFC"/>
<path d="M286.833 20.1713L286.225 21.124L305.582 33.6353L306.19 32.6825L286.833 20.1713Z" fill="#C3DAFC"/>
<path d="M313.283 20.2885L312.674 21.2412L332.031 33.7524L332.64 32.7997L313.283 20.2885Z" fill="#C3DAFC"/>
<path d="M339.734 20.4066L339.125 21.3594L358.482 33.8706L359.091 32.9179L339.734 20.4066Z" fill="#C3DAFC"/>
<path d="M366.184 20.5238L365.576 21.4766L384.933 33.9878L385.541 33.0351L366.184 20.5238Z" fill="#C3DAFC"/>
<path d="M392.634 20.641L392.026 21.5938L411.383 34.105L411.991 33.1522L392.634 20.641Z" fill="#C3DAFC"/>
<path d="M419.084 20.7582L418.475 21.7109L437.832 34.2222L438.44 33.2694L419.084 20.7582Z" fill="#C3DAFC"/>
<path d="M445.534 20.8764L444.926 21.8291L464.283 34.3403L464.891 33.3876L445.534 20.8764Z" fill="#C3DAFC"/>
<path d="M472.003 21.0062L471.395 21.959L490.752 34.4702L491.36 33.5175L472.003 21.0062Z" fill="#C3DAFC"/>
<path d="M498.452 21.1215L497.843 22.0742L517.2 34.5855L517.809 33.6327L498.452 21.1215Z" fill="#C3DAFC"/>
<path d="M524.904 21.2406L524.295 22.1934L543.652 34.7046L544.261 33.7519L524.904 21.2406Z" fill="#C3DAFC"/>
</g>
<path d="M371.94 245.781H414.4V210.562H371.94V245.781Z" fill="#8DB0FF"/>
<path d="M393.172 245.781H435.631V210.562H393.172V245.781Z" fill="#AEC3FF"/>
<path d="M371.96 236.865H378.692L378.107 234.94L378.692 233.581H371.96V236.865Z" fill="#2A4E96"/>
<path d="M393.167 221.464H399.899L399.314 219.561L399.899 218.202H393.167V221.464Z" fill="#618DC1"/>
<path d="M393.167 218.202H386.436L387.044 220.105L386.436 221.464H393.167V218.202Z" fill="#2A4E96"/>
<path d="M435.627 237.228H428.896L429.504 239.13L428.896 240.489H435.627V237.228Z" fill="#618DC1"/>
<path d="M432.858 212.948H420.633V217.727H432.858V212.948Z" fill="white"/>
<path d="M510.415 187.965C510.415 187.965 508.412 199.493 506.205 211.52C503.819 224.589 501.207 238.291 500.712 238.45C499.767 238.79 499.834 236.706 499.181 235.098C498.663 233.83 497.065 222.89 497.583 216.073C497.718 214.419 498.146 193.876 500.96 191.453C503.796 189.052 510.415 187.965 510.415 187.965Z" fill="#FFB27D"/>
<path d="M498.551 232.063C498.551 232.063 499.046 233.943 498.326 235.801C497.606 237.635 497.47 238.179 498.776 239.221C500.082 240.262 501.523 241.712 502.513 241.282C503.504 240.851 502.896 232.403 502.896 232.403L498.551 232.063Z" fill="#FFB27D"/>
<path d="M501.298 307.575C502.513 306.828 501.815 301.233 501.815 301.233C501.815 301.233 496.12 296.658 495.332 300.169C494.544 303.68 489.928 305.242 487.294 305.673C485.471 305.967 484.908 306.986 484.75 307.575H501.298Z" fill="#2A4E96"/>
<path d="M526.58 307.575C527.795 306.828 527.098 301.233 527.098 301.233C527.098 301.233 521.402 296.658 520.614 300.169C519.826 303.68 515.211 305.242 512.577 305.673C510.753 305.967 510.19 306.986 510.033 307.575H526.58Z" fill="#2A4E96"/>
<path d="M518.655 242.64C516.629 251.247 514.085 261.077 513.072 266.626C512.959 267.26 512.869 267.849 512.779 268.37C512.711 268.891 512.666 269.344 512.644 269.729C512.104 280.102 503.954 303.861 502.491 304.405C500.239 305.265 496.682 303.431 494.814 302.842C494.048 302.593 493.53 301.823 493.688 301.007C497.718 282.322 500.217 255.573 500.757 239.651C501.027 231.633 501.387 225.925 501.387 225.925C501.387 225.925 521.289 220.58 521.402 227.352C521.492 229.957 520.231 235.913 518.655 242.64Z" fill="#FF9843"/>
<path d="M518.655 242.64C516.629 251.247 514.085 261.077 513.072 266.626C512.959 267.26 512.351 272.718 512.284 273.239L508.794 233.422L513.725 233.875L518.655 242.64Z" fill="#E27830"/>
<path d="M510.821 229.662L517.845 303.453C517.845 303.453 523.045 305.152 527.728 303.838C527.728 303.838 530.452 263.5 530.205 253.625C529.957 243.773 532.411 227.239 529.642 225.404C526.873 223.592 510.821 229.662 510.821 229.662Z" fill="#FF9843"/>
<path d="M529.506 209.912C529.574 210.75 529.912 226.491 529.934 227.08C529.957 227.737 528.201 229.028 521.942 229.957C519.691 230.296 517.057 230.523 514.017 230.545C506.228 230.636 503.256 227.329 503.256 227.329C502.716 227.329 503.841 223.502 504.022 198.633C503.887 198.633 503.751 198.655 503.616 198.61C500.847 197.523 498.281 195.281 498.281 195.281C498.281 195.281 501.41 186.538 504.359 182.076C505.08 180.989 507.016 180.128 509.605 179.585C510.28 179.449 511.001 179.313 511.766 179.2C515.301 178.724 519.556 178.701 523.495 179.268C524.171 179.358 524.869 179.471 525.522 179.607C528.448 180.196 531.082 181.17 532.951 182.529C535.697 184.545 537.746 194.828 537.746 194.828C537.746 194.828 535.157 197.795 529.326 199.222C529.056 205.224 529.169 206.016 529.506 209.912Z" fill="#2A4E96"/>
<path d="M501.433 225.925L503.819 196.141C503.954 194.42 505.417 193.129 507.128 193.197L523.315 193.831C524.644 193.876 525.724 194.941 525.792 196.3C525.994 200.218 526.737 207.806 529.506 209.935L530.97 231.497L512.869 247.985C512.869 247.985 510.821 235.913 507.984 232.539C506.43 230.659 501.433 225.925 501.433 225.925Z" fill="#FF9843"/>
<path d="M525.567 179.676L523.608 194.896L521.582 194.579L523.541 179.336C524.216 179.427 524.891 179.54 525.567 179.676Z" fill="#FF9843"/>
<path d="M511.789 179.245L509.29 192.903L509.087 194.058L508.862 194.012L507.083 193.605L509.65 179.63C510.303 179.472 511.046 179.358 511.789 179.245Z" fill="#FF9843"/>
<path d="M537.768 211.136C537.768 211.136 536.553 214.85 520.929 219.991C520.929 219.991 520.749 215.801 521.694 215.235C524.621 213.491 531.622 208.327 531.87 207.421C532.028 206.81 530.429 202.234 528.426 197.637C532.14 197.229 534.527 196.889 537.251 195.417C538.264 202.642 539.66 207.693 537.768 211.136Z" fill="#FFB27D"/>
<path d="M519.151 215.439C519.151 215.439 517.845 214.442 516.854 214.284C515.864 214.125 514.175 213.491 514.445 214.08C514.716 214.669 516.562 215.62 516.562 215.62L519.151 215.439Z" fill="#FFB27D"/>
<path d="M516.652 222.052L511.564 222.686C511.001 222.754 510.46 222.415 510.303 221.871L506.813 210.252C506.611 209.55 507.061 208.848 507.781 208.757L512.869 208.123C513.432 208.055 513.972 208.395 514.13 208.938L517.62 220.557C517.845 221.259 517.372 221.962 516.652 222.052Z" fill="#233862"/>
<path d="M514.85 222.278L509.762 222.912C509.2 222.98 508.659 222.64 508.502 222.097L505.012 210.477C504.809 209.775 505.26 209.073 505.98 208.983L511.068 208.348C511.631 208.281 512.171 208.62 512.329 209.164L515.818 220.783C516.021 221.462 515.571 222.187 514.85 222.278Z" fill="#192E4F"/>
<path d="M511.248 210.569C511.09 210.591 510.933 210.478 510.888 210.342L507.466 200.15C507.421 200.014 507.488 199.878 507.646 199.855C507.803 199.833 507.961 199.946 508.006 200.082L511.428 210.274C511.473 210.41 511.406 210.546 511.248 210.569Z" fill="#192E4F"/>
<path d="M521.695 215.235C521.695 215.235 520.794 215.801 520.141 215.62C519.601 215.484 519.151 215.439 518.52 215.008C517.867 214.555 516.427 215.144 516.021 215.439C514.828 216.231 510.821 216.209 510.821 217.001C510.821 217.794 512.554 220.036 514.671 220.693C516.787 221.35 520.907 219.991 520.907 219.991L521.695 215.235Z" fill="#FFB27D"/>
<path d="M521.762 178.951C521.852 181.306 519.758 182.461 516.629 182.031C513.5 181.578 513.432 179.132 513.432 179.132L513.5 176.776L513.59 173.99L513.68 171.499L521.244 172.541C521.222 172.722 521.222 173.175 521.244 173.741C521.334 175.213 521.537 177.637 521.762 178.951Z" fill="#FFB27D"/>
<path d="M521.266 173.719C521.199 173.832 519.465 176.188 513.522 176.776L513.612 173.991L521.266 173.719Z" fill="#ED975D"/>
<path d="M512.149 175.304C512.149 175.304 521.447 177.207 522.528 171.34C523.608 165.497 525.544 161.805 519.646 160.333C513.747 158.883 512.172 160.899 511.339 162.756C510.528 164.636 509.763 174.67 512.149 175.304Z" fill="#FFB27D"/>
<path d="M522.122 172.655C522.122 172.655 525.364 173.379 525.656 167.468C525.769 165.18 526.332 157.185 519.848 157.457C513.364 157.729 510.415 161.534 509.83 162.213C505.417 167.241 516.178 163.504 517.597 164.659C519.038 165.837 517.664 167.74 519.308 168.442C520.951 169.121 522.234 169.121 521.964 170.639C521.694 172.111 522.122 172.655 522.122 172.655Z" fill="#233862"/>
<path d="M508.975 162.303C508.975 162.303 512.442 163.527 513.657 163.617C514.018 163.64 519.398 164.025 519.398 164.025L527.255 165.429C527.255 165.429 528.786 159.563 524.936 155.871C524.846 155.78 524.734 155.69 524.644 155.599C523.608 154.693 522.212 153.946 520.366 153.47C510.956 151.069 508.997 161.964 508.975 162.303Z" fill="#FF9E55"/>
<path d="M513.545 163.436L515.031 163.64C516.201 162.1 520.479 156.732 525.027 155.939C525.004 155.894 524.982 155.871 524.959 155.826C524.891 155.735 524.824 155.69 524.711 155.531C524.689 155.531 524.689 155.531 524.666 155.554C518.858 156.958 514.535 162.077 513.545 163.436Z" fill="#E27830"/>
<path d="M519.398 164.002C519.398 164.002 520.411 165.157 520.681 166.267C520.951 167.377 526.039 168.034 526.399 167.467C526.76 166.901 527.255 165.406 527.255 165.406L519.398 164.002Z" fill="#FF9E55"/>
<path d="M519.398 164.002C519.398 164.002 509.988 164.183 505.71 161.895C505.373 161.714 505.44 161.239 505.8 161.148C506.453 160.989 507.556 160.808 509.357 160.74C509.335 160.74 512.712 163.571 519.398 164.002Z" fill="#E27830"/>
<path d="M135.416 235.937H34.9404V309.456H135.416V235.937Z" fill="#AEC3FF"/>
<path d="M148.136 152.655H134.425V307.576H157.659V231.18L148.136 191.906V152.655Z" fill="#AEC3FF"/>
<path d="M224.072 152.655H148.136V191.906H224.072V152.655Z" fill="#D2E0FF"/>
<path d="M233.595 231.18H157.659V307.598H233.595V231.18Z" fill="#D2E0FF"/>
<path d="M233.595 231.18H157.659L148.136 191.906H224.072L233.595 231.18Z" fill="#C1D4F7"/>
<path d="M158.919 199.72H156.916L156.173 196.866H158.154L158.919 199.72Z" fill="#AEC3FF"/>
<path d="M163.422 199.72H161.441L160.675 196.866H162.679L163.422 199.72Z" fill="#AEC3FF"/>
<path d="M167.947 199.72H165.966L165.201 196.866H167.182L167.947 199.72Z" fill="#AEC3FF"/>
<path d="M172.472 199.72H170.469L169.726 196.866H171.707L172.472 199.72Z" fill="#AEC3FF"/>
<path d="M176.975 199.72H174.994L174.229 196.866H176.21L176.975 199.72Z" fill="#AEC3FF"/>
<path d="M181.5 199.72H179.519L178.753 196.866H180.735L181.5 199.72Z" fill="#AEC3FF"/>
<path d="M160.338 205.02H158.334L157.591 202.166H159.572L160.338 205.02Z" fill="#AEC3FF"/>
<path d="M164.84 205.02H162.859L162.094 202.166H164.097L164.84 205.02Z" fill="#AEC3FF"/>
<path d="M169.366 205.02H167.385L166.619 202.166H168.6L169.366 205.02Z" fill="#AEC3FF"/>
<path d="M173.891 205.02H171.887L171.144 202.166H173.125L173.891 205.02Z" fill="#AEC3FF"/>
<path d="M178.394 205.02H176.412L175.647 202.166H177.628L178.394 205.02Z" fill="#AEC3FF"/>
<path d="M182.918 205.02H180.937L180.172 202.166H182.153L182.918 205.02Z" fill="#AEC3FF"/>
<path d="M161.801 210.524H159.82L159.055 207.67H161.036L161.801 210.524Z" fill="#AEC3FF"/>
<path d="M166.304 210.524H164.323L163.58 207.67H165.561L166.304 210.524Z" fill="#AEC3FF"/>
<path d="M170.829 210.524H168.848L168.083 207.67H170.064L170.829 210.524Z" fill="#AEC3FF"/>
<path d="M175.354 210.524H173.373L172.607 207.67H174.589L175.354 210.524Z" fill="#AEC3FF"/>
<path d="M179.857 210.524H177.876L177.11 207.67H179.114L179.857 210.524Z" fill="#AEC3FF"/>
<path d="M184.382 210.524H182.401L181.635 207.67H183.616L184.382 210.524Z" fill="#AEC3FF"/>
<path d="M163.22 215.823H161.239L160.473 212.992H162.454L163.22 215.823Z" fill="#AEC3FF"/>
<path d="M167.722 215.823H165.741L164.998 212.992H166.979L167.722 215.823Z" fill="#AEC3FF"/>
<path d="M172.248 215.823H170.266L169.501 212.992H171.482L172.248 215.823Z" fill="#AEC3FF"/>
<path d="M176.772 215.823H174.791L174.026 212.992H176.007L176.772 215.823Z" fill="#AEC3FF"/>
<path d="M181.275 215.823H179.294L178.529 212.992H180.532L181.275 215.823Z" fill="#AEC3FF"/>
<path d="M185.8 215.823H183.819L183.054 212.992H185.035L185.8 215.823Z" fill="#AEC3FF"/>
<path d="M190.348 199.72H188.367L187.601 196.866H189.582L190.348 199.72Z" fill="#AEC3FF"/>
<path d="M194.873 199.72H192.869L192.126 196.866H194.107L194.873 199.72Z" fill="#AEC3FF"/>
<path d="M199.375 199.72H197.394L196.629 196.866H198.633L199.375 199.72Z" fill="#AEC3FF"/>
<path d="M203.9 199.72H201.919L201.154 196.866H203.135L203.9 199.72Z" fill="#AEC3FF"/>
<path d="M208.426 199.72H206.422L205.679 196.866H207.66L208.426 199.72Z" fill="#AEC3FF"/>
<path d="M212.928 199.72H210.947L210.182 196.866H212.185L212.928 199.72Z" fill="#AEC3FF"/>
<path d="M191.766 205.02H189.785L189.02 202.166H191.001L191.766 205.02Z" fill="#AEC3FF"/>
<path d="M196.291 205.02H194.287L193.544 202.166H195.526L196.291 205.02Z" fill="#AEC3FF"/>
<path d="M200.794 205.02H198.813L198.047 202.166H200.051L200.794 205.02Z" fill="#AEC3FF"/>
<path d="M205.319 205.02H203.338L202.572 202.166H204.553L205.319 205.02Z" fill="#AEC3FF"/>
<path d="M209.844 205.02H207.841L207.098 202.166H209.079L209.844 205.02Z" fill="#AEC3FF"/>
<path d="M214.347 205.02H212.366L211.6 202.166H213.604L214.347 205.02Z" fill="#AEC3FF"/>
<path d="M193.23 210.524H191.248L190.483 207.67H192.464L193.23 210.524Z" fill="#AEC3FF"/>
<path d="M197.754 210.524H195.773L195.008 207.67H196.989L197.754 210.524Z" fill="#AEC3FF"/>
<path d="M202.28 210.524H200.276L199.533 207.67H201.514L202.28 210.524Z" fill="#AEC3FF"/>
<path d="M206.782 210.524H204.801L204.036 207.67H206.017L206.782 210.524Z" fill="#AEC3FF"/>
<path d="M211.308 210.524H209.326L208.561 207.67H210.542L211.308 210.524Z" fill="#AEC3FF"/>
<path d="M215.81 210.524H213.829L213.086 207.67H215.067L215.81 210.524Z" fill="#AEC3FF"/>
<path d="M194.648 215.823H192.667L191.901 212.992H193.883L194.648 215.823Z" fill="#AEC3FF"/>
<path d="M199.173 215.823H197.192L196.426 212.992H198.407L199.173 215.823Z" fill="#AEC3FF"/>
<path d="M203.698 215.823H201.695L200.952 212.992H202.933L203.698 215.823Z" fill="#AEC3FF"/>
<path d="M208.201 215.823H206.22L205.454 212.992H207.435L208.201 215.823Z" fill="#AEC3FF"/>
<path d="M212.726 215.823H210.745L209.979 212.992H211.961L212.726 215.823Z" fill="#AEC3FF"/>
<path d="M217.228 215.823H215.247L214.504 212.992H216.486L217.228 215.823Z" fill="#AEC3FF"/>
<path d="M182.153 165.203H153.967V188.056H182.153V165.203Z" fill="#2B478B"/>
<path d="M182.176 165.203H180.172V188.056H182.176V165.203Z" fill="#699DEE"/>
<path d="M230.916 299.784H162.994V271.677H230.916V299.784ZM163.444 299.331H230.488V272.13H163.444V299.331Z" fill="#AEC3FF"/>
<path d="M199.465 159.224C199.465 160.084 198.993 160.764 198.385 160.764C197.799 160.764 197.304 160.084 197.304 159.224C197.304 158.363 197.777 157.684 198.385 157.684C198.993 157.684 199.465 158.363 199.465 159.224Z" fill="white"/>
<path d="M204.508 159.224C204.508 160.084 204.036 160.764 203.428 160.764C202.842 160.764 202.347 160.084 202.347 159.224C202.347 158.363 202.82 157.684 203.428 157.684C204.013 157.684 204.508 158.363 204.508 159.224Z" fill="#FF9E55"/>
<path d="M209.529 159.224C209.529 160.084 209.056 160.764 208.448 160.764C207.863 160.764 207.368 160.084 207.368 159.224C207.368 158.363 207.84 157.684 208.448 157.684C209.056 157.684 209.529 158.363 209.529 159.224Z" fill="#699DEE"/>
<path d="M214.572 159.224C214.572 160.084 214.099 160.764 213.491 160.764C212.906 160.764 212.411 160.084 212.411 159.224C212.411 158.363 212.883 157.684 213.491 157.684C214.099 157.684 214.572 158.363 214.572 159.224Z" fill="white"/>
<path d="M219.615 159.224C219.615 160.084 219.142 160.764 218.534 160.764C217.949 160.764 217.454 160.084 217.454 159.224C217.454 158.363 217.926 157.684 218.534 157.684C219.12 157.684 219.615 158.363 219.615 159.224Z" fill="#FF9E55"/>
<path d="M219.84 183.866H197.529V164.977H219.84V183.866ZM197.98 183.413H219.389V165.407H197.98V183.413Z" fill="#AEC3FF"/>
<path d="M165.133 167.626H161.688V168.26H165.133V167.626Z" fill="#E9F3FE"/>
<path d="M160.428 167.626H155.002V168.26H160.428V167.626Z" fill="#E9F3FE"/>
<path d="M163.22 169.348H155.002V169.982H163.22V169.348Z" fill="#E9F3FE"/>
<path d="M169.771 169.348H164.323V169.982H169.771V169.348Z" fill="#E9F3FE"/>
<path d="M171.82 167.626H165.876V168.26H171.82V167.626Z" fill="#E9F3FE"/>
<path d="M160.428 172.292H155.002V172.926H160.428V172.292Z" fill="#E9F3FE"/>
<path d="M163.22 173.99H155.002V174.624H163.22V173.99Z" fill="#E9F3FE"/>
<path d="M169.771 173.99H164.323V174.624H169.771V173.99Z" fill="#E9F3FE"/>
<path d="M165.133 172.292H161.689V172.926H165.133V172.292Z" fill="#E9F3FE"/>
<path d="M171.82 172.292H165.876V172.926H171.82V172.292Z" fill="#E9F3FE"/>
<path d="M160.428 177.411H155.002V178.045H160.428V177.411Z" fill="#E9F3FE"/>
<path d="M163.22 179.109H155.002V179.744H163.22V179.109Z" fill="#E9F3FE"/>
<path d="M169.771 179.109H164.323V179.744H169.771V179.109Z" fill="#E9F3FE"/>
<path d="M165.133 177.411H161.689V178.045H165.133V177.411Z" fill="#E9F3FE"/>
<path d="M171.82 177.411H165.876V178.045H171.82V177.411Z" fill="#E9F3FE"/>
<path d="M160.428 182.326H155.002V182.96H160.428V182.326Z" fill="#E9F3FE"/>
<path d="M163.22 184.048H155.002V184.682H163.22V184.048Z" fill="#E9F3FE"/>
<path d="M169.771 184.048H164.323V184.682H169.771V184.048Z" fill="#E9F3FE"/>
<path d="M165.133 182.326H161.689V182.96H165.133V182.326Z" fill="#E9F3FE"/>
<path d="M171.82 182.326H165.876V182.96H171.82V182.326Z" fill="#E9F3FE"/>
<path d="M157.659 235.937H32.2837V240.421H157.659V235.937Z" fill="#D2E0FF"/>
<path d="M61.078 205.111L58.6691 233.898C58.6691 233.898 58.4215 235.642 59.7047 235.642C61.8209 235.642 70.2633 235.642 70.2633 235.642C70.2633 235.642 68.6649 235.279 68.6874 234.464C68.7099 233.49 71.5015 204.839 71.5015 204.839L61.078 205.111Z" fill="#D86713"/>
<path d="M70.9389 235.121C70.5112 235.121 62.4515 235.144 60.4028 235.121C59.5023 235.121 59.3447 234.306 59.3447 233.808C59.3447 233.559 59.3672 233.377 59.3672 233.377L59.4348 232.63L59.5924 230.727L59.7274 229.051L59.9076 226.877L60.0651 225.042L61.7761 204.59L72.1997 204.318C72.1997 204.318 71.029 216.322 70.196 225.042C70.106 226.016 70.0159 226.945 69.9259 227.828C69.9033 228.1 69.8808 228.372 69.8583 228.644C69.7908 229.459 69.7007 230.229 69.6557 230.909C69.6332 231.271 69.5882 231.588 69.5656 231.882C69.4531 233.06 69.4081 233.808 69.3855 233.966C69.3855 234.057 69.3855 234.125 69.408 234.193C69.5882 235.099 70.8039 235.121 70.9389 235.121Z" fill="#EE9849"/>
<path d="M35.751 189.438L41.6044 213.129L42.4148 216.367L45.1389 227.398H95.8833L85.82 189.438H35.751Z" fill="#F1A34F"/>
<path d="M35.7509 189.438L34.9404 189.709L44.0582 228.236L45.1388 227.398L35.7509 189.438Z" fill="#EE9849"/>
<path d="M44.0581 228.235H94.4873L95.8831 227.397H45.1387L44.0581 228.235Z" fill="#D86713"/>
<path d="M61.7618 235.645H72.6807V235.124H61.7618V235.645Z" fill="#F1A34F"/>
<path d="M93.4291 220.399L85.1893 189.936H35.6606V189.438H85.8197L94.0144 220.331L93.4291 220.399Z" fill="#F1A34F"/>
<path d="M69.9033 228.235L69.8582 228.62L59.5923 230.727L59.7274 229.028L59.7949 228.235H69.9033Z" fill="#D86713"/>
<path opacity="0.4" d="M70.9389 235.121C70.5112 235.121 62.4515 235.143 60.4028 235.121C59.5023 235.121 59.3447 234.305 59.3447 233.807L69.5656 231.882C69.4531 233.06 69.4081 233.807 69.3855 233.966C69.3855 234.056 69.3855 234.124 69.4081 234.192C69.5882 235.098 70.8039 235.121 70.9389 235.121Z" fill="#D86713"/>
<path opacity="0.4" d="M67.4265 219.719L45.1386 227.397L42.4146 216.367L67.4265 219.719Z" fill="#D86713"/>
<path d="M35.751 189.438H85.82L93.9472 219.946H43.0452L35.751 189.438Z" fill="#AEC3FF"/>
<path d="M91.5834 218.632H44.6887L39.3982 197.342L38.9704 195.711L38.6327 194.33L37.8223 191.068H84.019L84.9195 194.33L85.3023 195.711L85.7525 197.342L91.5834 218.632Z" fill="#8AA8ED"/>
<path d="M79.5162 192.562L77.4 192.585L77.355 192.404L79.4712 192.358L79.5162 192.562Z" fill="#F9DDBF"/>
<path d="M79.0436 193.061L77.5353 193.084L77.4902 192.903L78.9986 192.88L79.0436 193.061Z" fill="#F9DDBF"/>
<path d="M80.7995 193.039L79.2687 193.061L79.2236 192.88L80.732 192.857L80.7995 193.039Z" fill="#F9DDBF"/>
<path d="M82.0379 193.015L81.1148 193.038L81.0698 192.857L81.9929 192.834L82.0379 193.015Z" fill="#F9DDBF"/>
<path d="M81.2048 192.54H79.899L79.854 192.359L81.1598 192.336L81.2048 192.54Z" fill="#F9DDBF"/>
<path d="M82.9831 192.495L81.6773 192.517L81.6323 192.336L82.9381 192.313L82.9831 192.495Z" fill="#F9DDBF"/>
<path d="M85.1447 216.729L83.0284 216.774L82.9834 216.571L85.0771 216.548L85.1447 216.729Z" fill="#F9DDBF"/>
<path d="M84.6721 217.251L83.1637 217.273L83.1187 217.092L84.627 217.069L84.6721 217.251Z" fill="#F9DDBF"/>
<path d="M86.4054 217.228L84.8971 217.251L84.8521 217.047H86.3604L86.4054 217.228Z" fill="#F9DDBF"/>
<path d="M87.6664 217.205H86.7208L86.6758 217.023H87.6213L87.6664 217.205Z" fill="#F9DDBF"/>
<path d="M86.8332 216.707L85.5274 216.729L85.4824 216.548L86.7882 216.525L86.8332 216.707Z" fill="#F9DDBF"/>
<path d="M88.6115 216.684L87.3058 216.707L87.2607 216.526L88.5665 216.503L88.6115 216.684Z" fill="#F9DDBF"/>
<path d="M46.5795 193.967L41.6267 193.945L41.5366 193.537H46.4895L46.5795 193.967Z" fill="#F9DDBF"/>
<path d="M45.4538 195.078H41.8967L41.8066 194.67H45.3637L45.4538 195.078Z" fill="#F9DDBF"/>
<path d="M49.5289 195.1H45.9944L45.8818 194.67H49.4389L49.5289 195.1Z" fill="#F9DDBF"/>
<path d="M52.5005 195.1H50.2942L50.1816 194.692H52.3879L52.5005 195.1Z" fill="#F9DDBF"/>
<path d="M50.542 193.967H47.5027L47.3901 193.537L50.4519 193.56L50.542 193.967Z" fill="#F9DDBF"/>
<path d="M54.7065 193.99L51.6673 193.967L51.5547 193.56H54.6165L54.7065 193.99Z" fill="#F9DDBF"/>
<path d="M46.6696 197.636L42.5047 197.614L42.3921 197.206H46.5795L46.6696 197.636Z" fill="#F9DDBF"/>
<path d="M49.7537 197.636H47.4348L47.3223 197.229H49.6636L49.7537 197.636Z" fill="#F9DDBF"/>
<path d="M54.3913 197.659L50.8117 197.636L50.7217 197.229H54.3013L54.3913 197.659Z" fill="#F9DDBF"/>
<path d="M47.705 198.723H42.7522L42.6621 198.293L47.5925 198.316L47.705 198.723Z" fill="#F9DDBF"/>
<path d="M46.5792 199.856H43.0222L42.9321 199.426L46.4667 199.448L46.5792 199.856Z" fill="#F9DDBF"/>
<path d="M50.6544 199.879L47.0974 199.856L47.0073 199.448H50.5644L50.6544 199.879Z" fill="#F9DDBF"/>
<path d="M53.6035 199.879H51.3972L51.3071 199.448L53.5134 199.471L53.6035 199.879Z" fill="#F9DDBF"/>
<path d="M51.6674 198.746H48.6057L48.5156 198.315H51.5549L51.6674 198.746Z" fill="#F9DDBF"/>
<path d="M55.832 198.746H52.7702L52.6802 198.338H55.7194L55.832 198.746Z" fill="#F9DDBF"/>
<path d="M47.8853 202.869L43.7204 202.846L43.6304 202.438H47.7953L47.8853 202.869Z" fill="#163560"/>
<path d="M50.992 202.869H48.6506L48.5605 202.438L50.8794 202.461L50.992 202.869Z" fill="#163560"/>
<path d="M55.6071 202.891L52.0501 202.869L51.9375 202.461H55.5171L55.6071 202.891Z" fill="#163560"/>
<path d="M48.9209 203.956H43.968L43.8779 203.525L48.8308 203.548L48.9209 203.956Z" fill="#163560"/>
<path d="M47.7951 205.089H44.238L44.1479 204.658L47.705 204.681L47.7951 205.089Z" fill="#163560"/>
<path d="M51.8703 205.088H48.3132L48.2231 204.681H51.7802L51.8703 205.088Z" fill="#163560"/>
<path d="M54.8193 205.111H52.6355L52.5229 204.681H54.7292L54.8193 205.111Z" fill="#163560"/>
<path d="M52.8833 203.978L49.844 203.956L49.7314 203.548H52.7932L52.8833 203.978Z" fill="#163560"/>
<path d="M57.0478 203.978H54.0086L53.896 203.548L56.9578 203.57L57.0478 203.978Z" fill="#163560"/>
<path d="M49.0557 207.851H44.8908L44.8008 207.443H48.9657L49.0557 207.851Z" fill="#F9DDBF"/>
<path d="M52.1624 207.874H49.821L49.731 207.443H52.0498L52.1624 207.874Z" fill="#F9DDBF"/>
<path d="M56.7775 207.874H53.2205L53.1079 207.443L56.6875 207.466L56.7775 207.874Z" fill="#F9DDBF"/>
<path d="M50.0913 208.961L45.1384 208.938L45.0483 208.53L50.0012 208.553L50.0913 208.961Z" fill="#F9DDBF"/>
<path d="M48.9655 210.093L45.4084 210.071L45.3184 209.663H48.8754L48.9655 210.093Z" fill="#F9DDBF"/>
<path d="M53.0407 210.093H49.4836L49.3936 209.663L52.9506 209.686L53.0407 210.093Z" fill="#F9DDBF"/>
<path d="M55.9897 210.116L53.8059 210.093L53.6934 209.686H55.8996L55.9897 210.116Z" fill="#F9DDBF"/>
<path d="M54.0537 208.96H51.0144L50.9019 208.553H53.9636L54.0537 208.96Z" fill="#F9DDBF"/>
<path d="M58.2182 208.983H55.179L55.0664 208.553H58.1282L58.2182 208.983Z" fill="#F9DDBF"/>
<path d="M50.2716 212.993H46.0842L45.9941 212.562L50.1591 212.585L50.2716 212.993Z" fill="#163560"/>
<path d="M53.3557 213.015L51.0144 212.993L50.9243 212.585H53.2657L53.3557 213.015Z" fill="#163560"/>
<path d="M57.9934 213.015H54.4138L54.3237 212.585L57.8808 212.608L57.9934 213.015Z" fill="#163560"/>
<path d="M51.2846 214.102L46.3543 214.08L46.2417 213.672H51.1946L51.2846 214.102Z" fill="#163560"/>
<path d="M50.1588 215.235L46.6243 215.212L46.5117 214.805H50.0688L50.1588 215.235Z" fill="#163560"/>
<path d="M54.2565 215.235H50.6995L50.5869 214.805L54.144 214.827L54.2565 215.235Z" fill="#163560"/>
<path d="M57.2055 215.235H54.9992L54.9092 214.827H57.0929L57.2055 215.235Z" fill="#163560"/>
<path d="M55.247 214.102H52.2077L52.1177 213.672L55.1569 213.695L55.247 214.102Z" fill="#163560"/>
<path d="M59.412 214.125L56.3728 214.102L56.2827 213.694H59.322L59.412 214.125Z" fill="#163560"/>
<path d="M68.2597 194.307L63.3069 194.285L63.2168 193.877L68.1472 193.9L68.2597 194.307Z" fill="#F1A34F"/>
<path d="M67.1339 195.44L63.5769 195.417L63.4868 195.01H67.0439L67.1339 195.44Z" fill="#F1A34F"/>
<path d="M71.2091 195.44H67.6521L67.562 195.01L71.1191 195.032L71.2091 195.44Z" fill="#F1A34F"/>
<path d="M74.1581 195.463L71.9744 195.44L71.8618 195.032H74.0681L74.1581 195.463Z" fill="#F1A34F"/>
<path d="M72.2221 194.307H69.1829L69.0703 193.899H72.1321L72.2221 194.307Z" fill="#F1A34F"/>
<path d="M76.3867 194.33H73.3249L73.2349 193.899H76.2966L76.3867 194.33Z" fill="#F1A34F"/>
<path d="M68.3497 197.976H64.1848L64.0723 197.546L68.2597 197.569L68.3497 197.976Z" fill="#F1A34F"/>
<path d="M71.4338 197.999L69.115 197.976L69.0024 197.568H71.3438L71.4338 197.999Z" fill="#F1A34F"/>
<path d="M76.0715 197.999H72.4919L72.4019 197.568L75.9814 197.591L76.0715 197.999Z" fill="#F1A34F"/>
<path d="M69.3627 199.086L64.4323 199.063L64.3423 198.655H69.2726L69.3627 199.086Z" fill="#F1A34F"/>
<path d="M68.237 200.218L64.7024 200.196L64.5898 199.788H68.1469L68.237 200.218Z" fill="#F1A34F"/>
<path d="M72.3346 200.218H68.7776L68.6875 199.788L72.222 199.811L72.3346 200.218Z" fill="#F1A34F"/>
<path d="M75.2836 200.218H73.0774L72.9873 199.811H75.1936L75.2836 200.218Z" fill="#F1A34F"/>
<path d="M73.3476 199.085H70.2859L70.1958 198.678H73.2351L73.3476 199.085Z" fill="#F1A34F"/>
<path d="M77.5122 199.108L74.4504 199.085L74.3604 198.678H77.3996L77.5122 199.108Z" fill="#F1A34F"/>
<path d="M69.5655 203.209H65.4006L65.3105 202.778L69.4755 202.801L69.5655 203.209Z" fill="#F9DDBF"/>
<path d="M72.6496 203.208H70.3308L70.2407 202.801H72.5596L72.6496 203.208Z" fill="#F9DDBF"/>
<path d="M77.2873 203.231H73.7077L73.6177 202.801H77.1972L77.2873 203.231Z" fill="#F9DDBF"/>
<path d="M70.601 204.318L65.6482 204.295L65.5581 203.888H70.4885L70.601 204.318Z" fill="#F9DDBF"/>
<path d="M69.4752 205.428H65.9182L65.8281 205.021H69.3627L69.4752 205.428Z" fill="#F9DDBF"/>
<path d="M73.5504 205.451L69.9934 205.428L69.9033 205.021H73.4604L73.5504 205.451Z" fill="#F9DDBF"/>
<path d="M76.4995 205.451H74.2932L74.2031 205.043H76.4094L76.4995 205.451Z" fill="#F9DDBF"/>
<path d="M74.5634 204.318H71.5017L71.4116 203.888L74.4734 203.91L74.5634 204.318Z" fill="#F9DDBF"/>
<path d="M78.728 204.318H75.6662L75.5762 203.91H78.6154L78.728 204.318Z" fill="#F9DDBF"/>
<path d="M70.736 208.214L66.5711 208.191L66.4585 207.783H70.6459L70.736 208.214Z" fill="#F9DDBF"/>
<path d="M73.82 208.213H71.5012L71.4111 207.806H73.73L73.82 208.213Z" fill="#F9DDBF"/>
<path d="M78.4577 208.236L74.8781 208.213L74.7881 207.806H78.3677L78.4577 208.236Z" fill="#F9DDBF"/>
<path d="M71.7714 209.3H66.8186L66.7285 208.87L71.6589 208.893L71.7714 209.3Z" fill="#F9DDBF"/>
<path d="M70.6456 210.433H67.0886L66.9985 210.003L70.5331 210.026L70.6456 210.433Z" fill="#F9DDBF"/>
<path d="M74.7208 210.456L71.1638 210.433L71.0737 210.025H74.6308L74.7208 210.456Z" fill="#F9DDBF"/>
<path d="M77.6699 210.456H75.4636L75.3735 210.025L77.5798 210.048L77.6699 210.456Z" fill="#F9DDBF"/>
<path d="M75.7339 209.323L72.6721 209.3L72.582 208.893H75.6213L75.7339 209.323Z" fill="#F9DDBF"/>
<path d="M79.8984 209.323H76.8366L76.7466 208.915H79.7858L79.8984 209.323Z" fill="#F9DDBF"/>
<path d="M71.9518 213.355L67.7644 213.333L67.6743 212.925H71.8392L71.9518 213.355Z" fill="#F9DDBF"/>
<path d="M75.0359 213.355H72.6945L72.6045 212.925H74.9233L75.0359 213.355Z" fill="#F9DDBF"/>
<path d="M79.6736 213.355H76.094L75.9814 212.947H79.561L79.6736 213.355Z" fill="#F9DDBF"/>
<path d="M72.9648 214.442H68.0344L67.9219 214.012L72.8747 214.034L72.9648 214.442Z" fill="#F9DDBF"/>
<path d="M71.839 215.575H68.2819L68.1919 215.145L71.749 215.167L71.839 215.575Z" fill="#F9DDBF"/>
<path d="M75.9142 215.575H72.3797L72.2671 215.167H75.8241L75.9142 215.575Z" fill="#F9DDBF"/>
<path d="M78.8857 215.597L76.6795 215.575L76.5669 215.167H78.7732L78.8857 215.597Z" fill="#F9DDBF"/>
<path d="M76.9272 214.465L73.888 214.442L73.7754 214.034H76.8372L76.9272 214.465Z" fill="#F9DDBF"/>
<path d="M81.0918 214.465H78.0525L77.9399 214.034L81.0017 214.057L81.0918 214.465Z" fill="#F9DDBF"/>
<path d="M94.7573 300.758C94.7573 300.758 94.3071 307.848 92.9338 307.938C92.7537 307.961 86.0223 307.938 86.0223 307.938L77.4448 307.87C77.4448 307.87 77.5124 305.786 80.0113 305.356C82.5328 304.926 86.7202 303.159 88.2511 299.83C89.872 296.319 94.7573 300.758 94.7573 300.758Z" fill="#0E2C4F"/>
<path d="M119.341 242.505C119.679 242.777 128.414 252.312 127.694 259.65C127.491 261.802 125.645 263.41 123.484 263.41H112.835C112.835 263.41 101.961 265.358 101.714 267.736C101.444 270.092 99.2372 282.843 94.8247 300.94C94.8247 300.94 91.5828 302.072 89.6017 301.257C86.9901 300.192 86.6074 299.06 86.6074 299.06C86.6074 299.06 89.2414 258.518 91.3126 255.664C93.3838 252.81 114.749 244.339 121.683 243.479C128.617 242.663 119.341 242.505 119.341 242.505Z" fill="#163560"/>
<path d="M57.5658 232.403C57.5658 232.403 51.3747 230.953 49.7988 232.403C48.2229 233.853 47.7051 235.936 47.7051 235.936H57.5433V232.403H57.5658Z" fill="#FFB27D"/>
<path d="M79.7188 300.758C79.7188 300.758 79.2685 307.848 77.8952 307.938C77.7151 307.961 70.9837 307.938 70.9837 307.938L62.4062 307.87C62.4062 307.87 62.4738 305.786 64.9727 305.356C67.4942 304.926 71.6816 303.159 73.2125 299.83C74.8334 296.319 79.7188 300.758 79.7188 300.758Z" fill="#163560"/>
<path d="M127.424 242.505C127.671 242.709 129.562 247.85 130.823 253.671C131.904 258.676 128.122 263.41 123.034 263.41H98.2468C98.2468 263.41 87.373 265.358 87.1253 267.736C86.8552 270.092 84.6489 282.843 80.2364 300.94C80.2364 300.94 76.972 301.801 74.428 300.713C73.0772 300.125 71.9966 298.743 71.9966 298.743C71.9966 298.743 74.6531 258.541 76.7243 255.687C78.7955 252.833 100.16 244.362 107.094 243.501C114.006 242.663 127.424 242.505 127.424 242.505Z" fill="#2B478B"/>
<path d="M113.691 206.266L109.864 209.958H103.335C103.335 209.437 103.357 207.217 103.38 205.224C103.38 205.111 103.38 204.997 103.38 204.884C103.38 204.431 103.38 204.023 103.402 203.616C103.425 202.506 103.425 201.713 103.425 201.713L105.113 200.558L108.851 197.999L110.877 196.617C110.877 196.662 111.034 198.474 111.079 198.724C111.462 203.435 113.691 206.266 113.691 206.266Z" fill="#FFB27D"/>
<path d="M104.19 205.587C104.325 205.542 111.372 202.348 112.205 202.62C113.038 202.892 114.051 205.428 114.051 205.428L101.601 208.26C101.624 208.282 102.592 206.266 104.19 205.587Z" fill="#163560"/>
<path d="M134.763 226.9C133.412 218.542 127.739 212.291 125.308 209.958C123.664 207.49 114.074 205.451 114.074 205.451C114.074 205.451 106.127 207.263 101.624 208.282C101.624 208.282 94.5999 209.052 90.6601 215.621C88.2062 219.698 81.2046 229.006 76.6119 229.278C72.0193 229.573 57.5659 232.381 57.5659 232.381V235.96L79.5837 236.571C79.8538 236.571 80.124 236.549 80.3941 236.503C82.2852 236.141 90.4124 234.51 94.4648 232.404C95.1177 242.868 95.8831 258.858 99.5077 261.395C103.357 264.09 130.373 264.43 133.255 260.353C134.718 258.269 132.917 245.857 130.688 233.899C133.435 232.585 135.326 230.411 134.763 226.9Z" fill="#2A4E96"/>
<path d="M109.796 200.196L109.458 200.4C109.458 200.4 106.374 202.62 103.38 203.616C103.402 202.507 103.402 201.714 103.402 201.714L105.091 200.559L109.796 200.196Z" fill="#EAA16E"/>
<path d="M101.106 201.781C101.106 201.781 111.147 202.982 111.8 196.663C112.453 190.366 114.164 186.267 107.792 185.225C101.399 184.206 99.9129 186.471 99.1925 188.532C98.472 190.593 98.5171 201.306 101.106 201.781Z" fill="#FFB27D"/>
<path d="M99.4624 187.898C99.4624 187.898 101.353 194.738 102.727 194.171C104.1 193.605 105.361 193.13 105.541 195.259C105.721 197.388 104.19 200.196 108.67 199.721C113.15 199.268 117.36 186.629 115.739 184.704C111.079 179.132 93.0011 181.239 99.4624 187.898Z" fill="#163560"/>
<path d="M92.3486 264.769H142.057C143.948 264.769 145.479 263.229 145.479 261.326V259.084H92.3486V264.769Z" fill="#77A4E5"/>
<path d="M86.3828 264.77H123.98C125.375 264.77 126.501 263.637 126.501 262.233V261.644C126.501 260.24 125.375 259.107 123.98 259.107H86.3828C84.987 259.107 83.8613 260.24 83.8613 261.644V262.233C83.8613 263.637 84.987 264.77 86.3828 264.77Z" fill="#F99746"/>
<path d="M117.698 305.81H120.895L121.796 264.77H116.888L117.698 305.81Z" fill="#2B478B"/>
<path d="M103.763 305.81H134.943V302.979L119.049 301.552L103.763 302.979V305.81Z" fill="#2B478B"/>
<path d="M137.079 307.334C138.154 306.405 138.276 304.774 137.352 303.693C136.428 302.611 134.808 302.488 133.733 303.418C132.658 304.347 132.536 305.977 133.459 307.059C134.383 308.14 136.004 308.263 137.079 307.334Z" fill="#2B478B"/>
<path d="M106.779 305.38C106.779 303.953 105.631 302.798 104.213 302.798C102.795 302.798 101.646 303.953 101.646 305.38C101.646 306.807 102.795 307.962 104.213 307.962C105.631 307.962 106.779 306.807 106.779 305.38Z" fill="#2B478B"/>
<path d="M104.866 267.465H133.818C135.304 267.465 136.497 266.264 136.497 264.77H102.187C102.187 266.264 103.403 267.465 104.866 267.465Z" fill="#2B478B"/>
<path d="M140.549 264.769C141.9 264.769 142.981 263.659 142.981 262.323V224.522C142.981 217.432 138.388 211.702 132.692 211.702H109.459C103.786 211.702 99.1704 217.455 99.1704 224.522V264.769H140.549Z" fill="#F99746"/>
<path d="M141.022 264.769C143.476 264.769 145.479 262.753 145.479 260.285V224.522C145.479 217.432 140.887 211.702 135.191 211.702H111.935C106.262 211.702 101.646 217.455 101.646 224.522V264.769H141.022Z" fill="#CC6A27"/>
<path d="M582.692 307.556H615.494V280.331H582.692V307.556Z" fill="#7F9EF4"/>
<path d="M599.114 307.556H631.916V280.331H599.114V307.556Z" fill="#AEC3FF"/>
<path d="M582.705 300.668H587.906L587.455 299.195L587.906 298.131H582.705V300.668Z" fill="#5D86E2"/>
<path d="M599.094 288.777H604.295L603.844 287.305L604.295 286.24H599.094V288.777Z" fill="#7F9EF4"/>
<path d="M599.095 286.24H593.894L594.367 287.712L593.894 288.777H599.095V286.24Z" fill="#5D86E2"/>
<path d="M631.918 300.962H626.718L627.168 302.434L626.718 303.476H631.918V300.962Z" fill="#7F9EF4"/>
<path d="M629.757 282.187H620.324V285.878H629.757V282.187Z" fill="white"/>
<path d="M538.23 307.601H571.099V280.331H538.23V307.601Z" fill="#7F9EF4"/>
<path d="M554.672 307.601H587.541V280.331H554.672V307.601Z" fill="#D4E4F8"/>
<path d="M538.242 300.667H543.465L542.992 299.195L543.465 298.153H538.242V300.667Z" fill="#2A4E96"/>
<path d="M554.676 288.755H559.877L559.426 287.282L559.877 286.218H554.676V288.755Z" fill="#618DC1"/>
<path d="M554.677 286.218H549.454L549.926 287.713L549.454 288.755H554.677V286.218Z" fill="#2A4E96"/>
<path d="M587.545 300.962H582.345L582.795 302.434L582.345 303.499H587.545V300.962Z" fill="#618DC1"/>
<path d="M585.384 282.163H575.929V285.855H585.384V282.163Z" fill="white"/>
<path d="M555.278 280.335H586.098V254.764H555.278V280.335Z" fill="#ED823A"/>
<path d="M570.682 280.335H601.502V254.764H570.682V280.335Z" fill="#FF9E55"/>
<path d="M555.284 273.851H560.169L559.742 272.469L560.169 271.495H555.284V273.851Z" fill="#DD732C"/>
<path d="M570.683 262.685H575.568L575.141 261.303L575.568 260.307H570.683V262.685Z" fill="#FFB27D"/>
<path d="M570.683 260.307H565.797L566.225 261.688L565.797 262.685H570.683V260.307Z" fill="#DD732C"/>
<path d="M601.503 274.123H596.618L597.046 275.505L596.618 276.501H601.503V274.123Z" fill="#FFB27D"/>
<path d="M599.477 256.502H590.607V259.967H599.477V256.502Z" fill="white"/>
<path d="M185.755 172.36H184.382V173.742H185.755V172.36Z" fill="#AEC3FF"/>
<path d="M189.312 172.36H187.939V173.742H189.312V172.36Z" fill="#AEC3FF"/>
<path d="M192.869 172.36H191.496V173.742H192.869V172.36Z" fill="#AEC3FF"/>
<path d="M185.755 175.44H184.382V176.822H185.755V175.44Z" fill="#AEC3FF"/>
<path d="M189.312 175.44H187.939V176.822H189.312V175.44Z" fill="#AEC3FF"/>
<path d="M192.869 175.44H191.496V176.822H192.869V175.44Z" fill="#AEC3FF"/>
<path d="M185.755 178.838H184.382V180.22H185.755V178.838Z" fill="#AEC3FF"/>
<path d="M189.312 178.838H187.939V180.22H189.312V178.838Z" fill="#AEC3FF"/>
<path d="M192.869 178.838H191.496V180.22H192.869V178.838Z" fill="#AEC3FF"/>
<path d="M198.655 210.116L200.884 209.776C201.131 209.731 201.244 209.482 201.131 209.165L198.97 202.551C198.835 202.143 198.43 201.826 198.114 201.872L195.886 202.211C195.638 202.257 195.525 202.506 195.638 202.823L197.799 209.436C197.934 209.844 198.34 210.161 198.655 210.116Z" fill="#233862"/>
<path d="M199.443 210.004L201.672 209.664C201.919 209.618 202.032 209.369 201.919 209.052L199.758 202.439C199.623 202.031 199.218 201.714 198.902 201.759L196.674 202.099C196.426 202.144 196.313 202.393 196.426 202.71L198.587 209.324C198.722 209.732 199.128 210.049 199.443 210.004Z" fill="#192E4F"/>
<path d="M197.304 203.322C197.371 203.322 197.394 203.231 197.371 203.163L195.615 197.319C195.593 197.229 195.525 197.184 195.458 197.184C195.39 197.184 195.368 197.274 195.39 197.342L197.146 203.186C197.169 203.276 197.236 203.344 197.304 203.322Z" fill="#192E4F"/>
<path d="M196.719 181.125C196.719 181.125 195.12 178.385 193.837 177.366C192.576 176.346 189.199 176.075 189.087 176.324C188.682 177.139 190.415 178.294 190.775 179.019C191.136 179.766 190.978 180.831 192.689 181.692C194.445 182.598 195.481 183.187 195.481 183.187L196.719 181.125Z" fill="#FFB27D"/>
<path d="M195.368 180.741C196.201 179.45 196.448 179.382 196.448 179.382C196.448 179.382 210.069 184.84 211.375 185.293C212.68 185.746 232.109 186.901 232.109 186.901L237.985 199.879C237.985 199.879 212.095 193.945 208.808 192.722C203.405 190.706 194.737 182.802 194.737 182.802C194.737 182.802 194.715 181.76 195.368 180.741Z" fill="#233862"/>
<path d="M229.205 302.027C229.205 302.027 228.913 306.828 228.012 307.961H214.347C214.437 307.485 214.819 306.308 216.53 305.99C218.692 305.605 222.294 304.088 223.6 301.211C224.995 298.199 229.205 302.027 229.205 302.027Z" fill="#163560"/>
<path d="M253.451 301.348C253.451 301.348 254.307 307.599 253.136 307.712C252.979 307.735 247.936 307.735 245.977 307.712C243.523 307.69 239.606 307.735 239.606 307.735C239.088 307.758 238.773 307.214 239.021 306.761C239.313 306.286 239.854 305.765 240.867 305.561C243.028 305.153 246.608 303.545 247.868 300.669C249.174 297.611 253.451 301.348 253.451 301.348Z" fill="#163560"/>
<path d="M222.766 237.998C222.766 237.998 226.211 250.093 236.049 271.089C245.887 292.084 246.652 301.665 246.652 301.665L253.429 301.348C253.429 301.348 252.798 276.343 248.138 265.743C243.478 255.144 242.533 226.13 242.533 226.13L222.766 237.998Z" fill="#ED823A"/>
<path d="M217.251 227.579C217.251 227.579 216.981 246.31 220.2 269.299C223.419 292.288 222.339 302.05 222.339 302.05L230.061 302.299C230.061 302.299 234.676 279.287 233.348 267.781C232.019 256.276 239.651 228.281 239.651 228.281L217.251 227.579Z" fill="#FF9E55"/>
<path d="M232.492 183.753L228.845 186.471L223.577 185.361C223.644 184.885 224.004 182.869 224.32 181.058C224.342 180.944 224.365 180.854 224.365 180.74C224.635 179.2 224.86 177.887 224.86 177.887L229.768 175.418L231.591 174.489C231.591 174.512 231.456 176.211 231.434 176.437C231.119 180.808 232.492 183.753 232.492 183.753Z" fill="#FFB27D"/>
<path d="M223.96 182.394C224.072 182.348 231.119 180.265 231.884 180.514C232.65 180.763 233.1 182.258 233.1 182.258L222.226 185.361C222.226 185.361 222.474 183.028 223.96 182.394Z" fill="#163560"/>
<path d="M242.893 229.889C241.7 235.37 216.823 218.179 217.161 214.85C217.206 214.488 217.228 214.103 217.273 213.74C217.723 209.097 218.174 204.545 218.196 201.555C218.219 198.973 218.579 196.346 219.052 193.945C219.479 191.725 220.02 189.732 220.47 188.169C220.785 187.059 221.393 186.108 222.204 185.338C222.766 184.794 223.442 184.364 224.185 184.07C224.387 183.979 224.59 183.911 224.793 183.843C227.787 182.96 231.929 181.895 233.055 182.212C236.094 183.118 238.368 188.509 239.966 195.372C242.983 208.282 243.681 226.333 242.893 229.889Z" fill="#2A4E96"/>
<path d="M231.096 176.528C230.016 178.612 226.008 180.401 224.32 181.058C224.342 180.945 224.365 180.854 224.365 180.741C224.635 179.201 224.86 177.887 224.86 177.887L229.768 175.418C230.871 175.396 231.547 175.69 231.096 176.528Z" fill="#FCA56B"/>
<path d="M222.496 177.592C222.496 177.592 231.366 180.378 232.987 174.806C234.63 169.235 236.859 165.837 231.276 163.822C225.693 161.806 223.959 163.618 222.969 165.339C221.978 167.06 220.222 176.732 222.496 177.592Z" fill="#FFB27D"/>
<path d="M223.329 164.795C223.329 164.795 223.892 171.296 225.22 171.001C226.549 170.73 227.764 170.503 227.562 172.474C227.359 174.421 225.513 176.686 229.633 177.026C233.753 177.366 239.651 166.698 238.526 164.682C235.261 158.861 218.602 157.684 223.329 164.795Z" fill="#163560"/>
<path d="M217.926 227.579C220.38 228.485 217.881 225.11 217.926 224.408C218.106 221.328 216.913 217.432 217.296 213.74L232.335 204.703C232.335 204.703 235.892 227.443 217.926 227.579Z" fill="#233862"/>
<path d="M242.893 229.889C236.477 241.871 235.441 246.446 235.441 246.446C229.858 245.812 220.267 234.759 217.228 231.792C217.228 231.792 216.823 218.179 217.138 214.85L221.776 214.714C221.776 214.714 230.173 216.843 232.334 213.944C234.518 211.045 233.573 196.799 233.573 196.799L239.944 195.417C242.983 208.282 244.627 226.696 242.893 229.889Z" fill="#FF9E55"/>
<path d="M206.264 206.991C206.264 206.991 204.441 206.628 203.946 206.243C203.248 205.655 202.685 204.681 202.347 204.567C201.762 204.386 200.344 202.597 200.231 202.461C200.186 202.416 199.803 202.597 199.893 202.891C199.983 203.186 200.208 203.843 200.276 204.069C200.614 205.088 200.591 205.405 199.375 205.02C199.218 204.975 196.404 204.069 196.111 204.703C195.818 205.337 196.989 208.44 198.452 209.097C199.916 209.754 203.54 209.165 203.788 209.233C206.017 209.89 206.264 206.991 206.264 206.991Z" fill="#FFB27D"/>
<path d="M204.779 206.402C204.779 206.402 219.705 208.961 221.011 208.305C223.127 207.263 220.2 192.042 220.2 192.042C220.2 192.042 220.065 188.6 224.072 187.784C227.562 187.082 230.916 189.709 230.916 189.709C230.916 189.709 233.978 192.45 233.573 195.508C232.717 202.28 231.366 216.028 226.864 218.134C221.056 220.852 204.283 210.592 204.283 210.592C204.283 210.592 203.72 209.913 203.811 208.622C203.878 207.489 204.779 206.402 204.779 206.402Z" fill="#2A4E96"/>
<path d="M234.856 196.527L233.618 196.799C233.618 196.799 231.006 185.429 222.226 185.361C222.789 184.818 223.464 184.387 224.207 184.093C227.427 184.953 233.01 187.739 234.856 196.527Z" fill="#FF9E55"/>
<path d="M191.811 179.653C191.811 179.653 189.402 178.158 189.29 178.793C189.222 179.11 190.303 179.993 190.73 180.355C191.158 180.718 192.261 181.465 192.261 181.465L191.811 179.653Z" fill="#FFB27D"/>
</g>
<defs>
<clipPath id="clip0_275_558">
<rect width="652" height="310" fill="white"/>
</clipPath>
</defs>
</svg>
